<?xml version="1.0" standalone="no"?>
<!DOCTYPE svg PUBLIC "-//W3C//DTD SVG 1.1//EN" "http://www.w3.org/Graphics/SVG/1.1/DTD/svg11.dtd" >
<svg>
<metadata>
Created by FontForge 20120731 at Tue Dec 16 22:32:40 2014
 By Orthosie Webhosting
Copyright (c) 1990, 1992 Adobe Systems Incorporated.  All Rights Reserved.DINSchrift is a trademark of Linotype-Hell AG and/or  
</metadata>
<defs>
<font id="DINNeuzeitGroteskBoldCondRegular" horiz-adv-x="240" >
  <font-face 
    font-family="DINNeuzeitGroteskBoldCondRegular"
    font-weight="400"
    font-stretch="normal"
    units-per-em="1000"
    panose-1="0 0 0 0 0 0 0 0 0 0"
    ascent="800"
    descent="-200"
    x-height="538"
    cap-height="736"
    bbox="-164 -250 1000 934"
    underline-thickness="50"
    underline-position="-55"
    unicode-range="U+0020-F002"
  />
<missing-glyph 
 />
    <glyph glyph-name=".notdef" 
 />
    <glyph glyph-name="glyph1" horiz-adv-x="0" 
 />
    <glyph glyph-name="glyph2" 
 />
    <glyph glyph-name="space" unicode=" " 
 />
    <glyph glyph-name="space" unicode="&#xa0;" 
 />
    <glyph glyph-name="exclam" unicode="!" 
d="M60 54q0 25 17.5 42.5t42.5 17.5t42.5 -17.5t17.5 -42.5t-17.5 -42t-42.5 -17t-42.5 17t-17.5 42v0zM64 736h112l-19 -546h-74l-19 546v0z" />
    <glyph glyph-name="quotedbl" unicode="&#x22;" horiz-adv-x="352" 
d="M71 532v204h74v-204h-74v0zM207 532v204h74v-204h-74v0z" />
    <glyph glyph-name="numbersign" unicode="#" horiz-adv-x="408" 
d="M54 0l24 216h-78v63h85l17 145h-78v63h85l25 216h62l-25 -216h96l25 216h62l-24 -216h78v-63h-85l-17 -145h78v-63h-85l-25 -216h-62l25 216h-96l-25 -216h-62v0zM164 424l-16 -145h96l16 145h-96v0z" />
    <glyph glyph-name="dollar" unicode="$" horiz-adv-x="408" 
d="M181 772h47v-57q74 -1 115.5 -34.5t57.5 -105.5l-88 -31q-7 51 -28.5 69t-56.5 20v-227q77 -47 127 -100t50 -133q0 -74 -48.5 -128t-128.5 -56v-71h-47v70q-73 2 -120.5 40t-57.5 118l93 22q9 -46 27 -70t58 -28v243q-8 5 -15.5 9.5t-14.5 8.5q-68 44 -102.5 92
t-34.5 115q0 77 45.5 126.5t121.5 50.5v57v0zM228 286v-216q38 8 61.5 32.5t23.5 62.5q0 18 -5.5 33t-16.5 30q-11 13 -26.5 27.5t-36.5 30.5v0zM181 433v200q-40 -5 -57.5 -26.5t-17.5 -55.5q0 -12 2 -23t7 -22q8 -17 24 -35t42 -38v0z" />
    <glyph glyph-name="percent" unicode="%" horiz-adv-x="778" 
d="M573 723h64l-431 -743h-64l431 743v0zM571 312q68 0 96.5 -47t28.5 -115t-28.5 -114.5t-96.5 -46.5q-67 0 -96 46.5t-29 114.5t29 115t96 47v0zM571 244q-24 0 -33.5 -23.5t-9.5 -70.5t9.5 -70.5t33.5 -23.5t33.5 23.5t9.5 70.5t-9.5 70.5t-33.5 23.5v0zM207 715
q68 0 96.5 -47t28.5 -115t-28.5 -115t-96.5 -47q-67 0 -96 47t-29 115t29 115t96 47v0zM207 647q-24 0 -33.5 -23.5t-9.5 -70.5t9.5 -70.5t33.5 -23.5t33.5 23.5t9.5 70.5t-9.5 70.5t-33.5 23.5v0z" />
    <glyph glyph-name="ampersand" unicode="&#x26;" horiz-adv-x="519" 
d="M294 366l91 -178l48 69l70 -57l-73 -98l53 -102h-102l-21 46q-25 -26 -62.5 -40t-81.5 -14q-87 0 -131.5 53.5t-44.5 125.5q0 57 35 110.5t105 105.5q-24 48 -35 81t-13 63q-1 4 -1 8v8q0 59 37 96.5t95 37.5h2.5h3.5q48 -2 88 -36t40 -98q0 -49 -25 -94.5t-78 -86.5v0z
M314 117l-92 190q-43 -29 -64 -61.5t-21 -67.5q0 -40 26 -70t65 -30q26 0 48 10.5t38 28.5v0zM223 541q0 -11 4 -28t12 -36q4 -9 8.5 -17.5t10.5 -16.5q26 28 36.5 52.5t10.5 45.5q0 26 -12 39.5t-29 13.5t-29 -13.5t-12 -39.5v0z" />
    <glyph glyph-name="quotesingle" unicode="'" 
d="M83 532v204h74v-204h-74v0z" />
    <glyph glyph-name="parenleft" unicode="(" horiz-adv-x="296" 
d="M186 779l86 -43q-52 -99 -77 -208.5t-25 -223.5t25 -223t77 -208l-86 -44q-49 92 -75.5 190.5t-34.5 199.5q-1 21 -2 42.5t-1 42.5t1 42.5t2 42.5q8 101 34.5 200t75.5 190v0z" />
    <glyph glyph-name="parenright" unicode=")" horiz-adv-x="296" 
d="M110 -171l-86 43q52 100 77 209t25 223t-25 223.5t-77 208.5l86 43q49 -91 75.5 -190t34.5 -200q1 -21 2 -42.5t1 -42.5t-1 -42.5t-2 -42.5q-8 -101 -34.5 -199.5t-75.5 -189.5v-1z" />
    <glyph glyph-name="asterisk" unicode="*" horiz-adv-x="352" 
d="M200 630l100 37l17 -54l-102 -29l65 -83l-45 -33l-59 88l-59 -88l-45 33l65 83l-102 29l17 54l100 -37l-4 106h56l-4 -106v0z" />
    <glyph glyph-name="plus" unicode="+" horiz-adv-x="600" 
d="M263 290v216h74v-216h216v-74h-216v-216h-74v216h-216v74h216v0z" />
    <glyph glyph-name="comma" unicode="," 
d="M77 127h107l-88 -213h-82l63 213v0z" />
    <glyph glyph-name="hyphen" unicode="-" horiz-adv-x="296" 
d="M51 327h194v-87h-194v87v0z" />
    <glyph glyph-name="period" unicode="." 
d="M60 54q0 25 17.5 42.5t42.5 17.5t42.5 -17.5t17.5 -42.5t-17.5 -42t-42.5 -17t-42.5 17t-17.5 42v0z" />
    <glyph glyph-name="slash" unicode="/" horiz-adv-x="296" 
d="M206 751h74l-190 -766h-74l190 766v0z" />
    <glyph glyph-name="zero" unicode="0" horiz-adv-x="408" 
d="M204 -12q-109 1 -138.5 105t-29.5 270q0 134 25 243t143 109t143 -109t25 -243q0 -166 -29 -270t-139 -104v-1zM204 623q-43 0 -54.5 -54.5t-11.5 -205.5q0 -153 13 -218t53 -65q44 0 55 60t11 223q0 151 -11.5 205.5t-54.5 54.5v0z" />
    <glyph glyph-name="one" unicode="1" horiz-adv-x="296" 
d="M214 0h-102v563q-4 -5 -11 -10.5t-15 -10.5l-12 -8t-12 -7q-12 -7 -23 -12.5t-19 -8.5v92q9 4 18 8.5t18 9.5q28 16 56 34.5t52 37.5q8 7 16 13.5t15 13.5h19v-715v0z" />
    <glyph glyph-name="two" unicode="2" horiz-adv-x="408" 
d="M371 92v-92h-343l168 326q4 7 7.5 15t7.5 15q7 14 14 28.5t13 28.5q15 34 25 66.5t10 60.5q0 32 -16 57.5t-47 25.5q-37 0 -52 -33t-18 -92h-102q0 89 38 153t138 64q81 0 122.5 -51.5t43.5 -112.5v-3.5v-2.5q0 -35 -11.5 -73.5t-28.5 -77.5q-11 -24 -23 -48t-25 -47
q-4 -8 -8.5 -16.5t-9.5 -16.5l-95 -174h192v0z" />
    <glyph glyph-name="three" unicode="3" horiz-adv-x="408" 
d="M70 374l148 237h-167v92h318v-12l-162 -258q5 1 9 1.5t9 1.5h8.5h8.5q69 0 99.5 -60t30.5 -166q0 -96 -47 -158.5t-130 -62.5q-82 0 -120.5 55t-38.5 149h102q0 -51 13.5 -82t51.5 -31q39 0 53 41.5t14 101.5q0 61 -19 100t-60 39q-18 0 -33 -8t-28 -26l-60 46v0z" />
    <glyph glyph-name="four" unicode="4" horiz-adv-x="408" 
d="M221 703h92v-483h75v-87h-75v-133h-97v133h-204v70l209 500v0zM93 220h123v301h-2l-121 -301v0z" />
    <glyph glyph-name="five" unicode="5" horiz-adv-x="408" 
d="M349 703v-92h-201l-4 -174l2 -2q17 26 40 38.5t56 12.5q7 0 14.5 -1t14.5 -4q38 -12 69.5 -63.5t31.5 -159.5q0 -19 -1 -38.5t-3 -39.5q-8 -72 -42 -131.5t-122 -59.5t-124 48.5t-42 107.5q-1 9 -1.5 17.5t-0.5 16.5v24h97v-9.5v-9.5q3 -41 16.5 -75t47.5 -34
q44 0 58.5 49.5t14.5 124.5q0 80 -19 115t-51 35h-5.5t-4.5 -1q-18 -3 -33.5 -20t-17.5 -54h-87l4 379h293v0z" />
    <glyph glyph-name="six" unicode="6" horiz-adv-x="408" 
d="M210 703h120q-13 -18 -26.5 -39t-26.5 -43q-15 -25 -29.5 -50.5t-28.5 -51.5q-9 -16 -17.5 -32t-16.5 -32h2q11 6 24.5 9.5t29.5 3.5q5 0 10.5 -0.5t10.5 -1.5q41 -9 75.5 -61.5t34.5 -178.5q0 -10 -0.5 -20.5t-1.5 -20.5q-7 -74 -46 -135t-123 -61q-88 0 -129.5 65.5
t-41.5 174.5q0 13 0.5 25.5t1.5 24.5q8 84 47.5 178.5t130.5 245.5v0zM206 381q-42 0 -58 -45.5t-16 -104.5q0 -11 0.5 -23.5t2.5 -24.5q5 -40 20.5 -74t48.5 -34q34 0 50 40t16 116q0 74 -15 112t-49 38v0z" />
    <glyph glyph-name="seven" unicode="7" horiz-adv-x="408" 
d="M46 611v92h337l-230 -703h-102l201 611h-206v0z" />
    <glyph glyph-name="eight" unicode="8" horiz-adv-x="408" 
d="M36 197q0 70 20.5 116t70.5 68q-48 23 -63 59.5t-15 88.5q0 80 39.5 133t115.5 53q77 0 116 -53t39 -133q0 -52 -15 -88.5t-63 -59.5q50 -22 70.5 -68t20.5 -116v-11.5t-1 -11.5q-4 -70 -41.5 -127.5t-125.5 -57.5t-125.5 57.5t-41.5 127.5q-1 6 -1 11.5v11.5v0zM138 207
q0 -49 13.5 -88t52.5 -39t52.5 39t13.5 88q0 54 -14 89t-52 35q-37 0 -51.5 -35t-14.5 -89v0zM146 526q0 -45 12.5 -76.5t45.5 -31.5t45.5 31.5t12.5 76.5t-13.5 73.5t-44.5 28.5t-44.5 -28.5t-13.5 -73.5v0z" />
    <glyph glyph-name="nine" unicode="9" horiz-adv-x="408" 
d="M198 0h-120q13 18 26.5 39t26.5 43q15 25 29.5 50.5t28.5 51.5q9 16 17.5 32t16.5 32h-2q-11 -6 -24.5 -9.5t-29.5 -3.5q-5 0 -10.5 0.5t-10.5 1.5q-41 9 -75.5 61.5t-34.5 178.5q0 10 0.5 20.5t1.5 20.5q7 74 46 135.5t123 61.5q89 0 130 -66t41 -175q0 -13 -0.5 -25.5
t-1.5 -24.5q-8 -84 -47.5 -178.5t-130.5 -245.5v0zM202 322q42 0 58 46t16 104q0 11 -0.5 23.5t-2.5 24.5q-5 40 -20.5 74t-48.5 34q-34 0 -50 -40t-16 -116q0 -73 15 -111.5t49 -38.5v0z" />
    <glyph glyph-name="colon" unicode=":" 
d="M60 54q0 25 17.5 42.5t42.5 17.5t42.5 -17.5t17.5 -42.5t-17.5 -42t-42.5 -17t-42.5 17t-17.5 42v0zM60 472q0 25 17.5 42.5t42.5 17.5t42.5 -17.5t17.5 -42.5t-17.5 -42.5t-42.5 -17.5t-42.5 17.5t-17.5 42.5v0z" />
    <glyph glyph-name="semicolon" unicode=";" 
d="M77 127h107l-88 -213h-82l63 213v0zM60 472q0 25 17.5 42.5t42.5 17.5t42.5 -17.5t17.5 -42.5t-17.5 -42.5t-42.5 -17.5t-42.5 17.5t-17.5 42.5v0z" />
    <glyph glyph-name="less" unicode="&#x3c;" horiz-adv-x="600" 
d="M553 66v-74l-506 227v68l506 227v-74l-414 -187l414 -187v0z" />
    <glyph glyph-name="equal" unicode="=" horiz-adv-x="600" 
d="M553 188v-74h-506v74h506v0zM553 392v-74h-506v74h506v0z" />
    <glyph glyph-name="greater" unicode="&#x3e;" horiz-adv-x="600" 
d="M47 440v74l506 -227v-68l-506 -227v74l414 187l-414 187v0z" />
    <glyph glyph-name="question" unicode="?" horiz-adv-x="352" 
d="M98 54q0 25 17.5 42.5t42.5 17.5t42.5 -17.5t17.5 -42.5t-17.5 -42t-42.5 -17t-42.5 17t-17.5 42v0zM201 190h-87q3 78 8.5 113.5t19.5 62.5q2 5 5 10l6 10l42 68q10 15 16 28t10 25q6 16 7.5 33.5t1.5 41.5q0 43 -11.5 62.5t-40.5 19.5q-37 0 -46 -37.5t-10 -88.5h-102
v16q0 86 39 141.5t124 55.5q60 0 104.5 -39.5t44.5 -131.5q0 -26 -3 -47t-11 -41q-5 -15 -13.5 -30t-19.5 -32l-44 -66q-4 -6 -7.5 -12t-6.5 -12q-16 -30 -20.5 -63.5t-5.5 -86.5v0z" />
    <glyph glyph-name="at" unicode="@" horiz-adv-x="800" 
d="M543 506l20 62h74l-87 -284q-1 -2 -1.5 -4.5t-0.5 -4.5q-3 -11 -5 -22t-2 -20q0 -10 5 -17t15 -7q4 0 8 0.5t7 1.5q49 10 90 73t43 137v3.5v2.5q0 121 -86.5 191t-207.5 70q-140 0 -232 -94.5t-92 -228.5q0 -137 97 -227t234 -90q77 0 146 30.5t114 84.5h74
q-53 -83 -142.5 -130t-196.5 -47q-166 0 -283 111.5t-117 270.5t117 271t283 112q149 0 257.5 -88t108.5 -228q0 -98 -50.5 -166.5t-111.5 -100.5q-24 -13 -48 -20t-45 -7q-26 0 -45.5 15.5t-23.5 47.5h-2q-22 -25 -55.5 -44t-69.5 -19q-68 0 -112 48t-44 115v9.5t1 9.5
q6 98 73 180t171 82q38 0 69.5 -18t52.5 -61v0zM510 417q0 38 -26.5 66t-63.5 28q-56 0 -97 -44.5t-56 -98.5q-5 -14 -7 -28.5t-2 -27.5q0 -43 25.5 -70t65.5 -27q51 0 90.5 42t57.5 93q6 17 9.5 34.5t3.5 32.5v0z" />
    <glyph glyph-name="A" unicode="A" horiz-adv-x="463" 
d="M175 736h102l166 -736h-107l-29 152h-161l-29 -152h-97l155 736v0zM162 234h130l-64 336h-2l-64 -336v0z" />
    <glyph glyph-name="B" unicode="B" horiz-adv-x="463" 
d="M56 0v736h143q97 0 141.5 -41t57.5 -90q4 -13 5.5 -26.5t1.5 -26.5q0 -61 -23 -98t-76 -60q63 -20 89 -68.5t26 -111.5q0 -18 -3 -41.5t-12 -48.5q-17 -46 -63 -85t-139 -39h-148v0zM158 352v-265q80 0 118 29.5t38 100.5q0 68 -35 101.5t-106 33.5h-15v0zM158 649v-215
h16q55 0 92 23.5t37 84.5q0 52 -28.5 79.5t-96.5 27.5h-20v0z" />
    <glyph glyph-name="C" unicode="C" horiz-adv-x="463" 
d="M421 583l-101 -34q-9 59 -29.5 84.5t-46.5 25.5q-60 0 -80 -87t-20 -195q0 -124 19 -212t78 -88q41 0 62.5 44t28.5 96v1.5v1.5l98 -35q-12 -82 -56 -140.5t-135 -58.5q-101 0 -151.5 88t-50.5 299q0 30 1.5 64.5t6.5 69.5q12 91 55 167.5t145 76.5q65 0 110 -41t66 -127
v0z" />
    <glyph glyph-name="D" unicode="D" horiz-adv-x="463" 
d="M56 0v736h118q146 0 196.5 -115.5t50.5 -258.5q0 -22 -1.5 -45.5t-4.5 -47.5q-13 -101 -65.5 -185t-167.5 -84h-126v0zM158 649v-562q92 0 124 82t32 200q0 137 -39.5 208.5t-116.5 71.5v0z" />
    <glyph glyph-name="E" unicode="E" horiz-adv-x="352" 
d="M56 736h268v-87h-166v-215h166v-87h-166v-260h166v-87h-268v736v0z" />
    <glyph glyph-name="F" unicode="F" horiz-adv-x="352" 
d="M56 736h268v-87h-166v-215h166v-87h-166v-347h-102v736v0z" />
    <glyph glyph-name="G" unicode="G" horiz-adv-x="463" 
d="M406 588l-99 -37q-7 51 -25 79.5t-50 28.5q-40 0 -64 -66t-24 -241q0 -112 16.5 -193.5t71.5 -81.5q52 0 68.5 70t19.5 185h-104v92h206v-85q0 -133 -36.5 -243t-153.5 -110q-131 0 -163 116.5t-32 256.5v4.5v4.5q0 152 38 267.5t157 115.5q77 0 117 -45.5t57 -117.5v0z
" />
    <glyph glyph-name="H" unicode="H" horiz-adv-x="463" 
d="M56 0v736h102v-302h147v302h102v-736h-102v347h-147v-347h-102v0z" />
    <glyph glyph-name="I" unicode="I" 
d="M69 0v736h102v-736h-102v0z" />
    <glyph glyph-name="J" unicode="J" horiz-adv-x="352" 
d="M194 736h102v-594q0 -60 -32.5 -108t-112.5 -48q-46 0 -79 17t-55 48l69 70q10 -22 25.5 -35.5t31.5 -13.5q25 0 38 17.5t13 42.5v604v0z" />
    <glyph glyph-name="K" unicode="K" horiz-adv-x="463" 
d="M56 736h102v-333h2l161 333h110l-176 -345l188 -391h-114l-169 367h-2v-367h-102v736v0z" />
    <glyph glyph-name="L" unicode="L" horiz-adv-x="352" 
d="M69 736h102v-644h164v-92h-266v736v0z" />
    <glyph glyph-name="M" unicode="M" horiz-adv-x="630" 
d="M56 736h110l148 -491h2l148 491h110v-736h-97v490h-2l-121 -418h-78l-121 418h-2v-490h-97v736v0z" />
    <glyph glyph-name="N" unicode="N" horiz-adv-x="463" 
d="M56 736h102l150 -466h2v466h97v-736h-102l-150 466h-2v-466h-97v736v0z" />
    <glyph glyph-name="O" unicode="O" horiz-adv-x="463" 
d="M37 368q0 152 38 267.5t157 115.5q130 0 162 -117t32 -257v-4.5v-4.5q0 -152 -37.5 -267t-156.5 -115q-131 0 -163 116.5t-32 256.5v4.5v4.5v0zM144 352q0 -112 16.5 -193.5t71.5 -81.5q54 0 70.5 86.5t16.5 227.5q0 167 -25 217.5t-62 50.5q-40 0 -64 -66t-24 -241v0z
" />
    <glyph glyph-name="P" unicode="P" horiz-adv-x="407" 
d="M56 0v736h103q99 0 159.5 -51.5t60.5 -176.5q0 -102 -50 -166t-154 -64h-17v-278h-102v0zM158 649v-284q66 0 90 42.5t24 102.5q0 64 -27.5 101.5t-86.5 37.5v0z" />
    <glyph glyph-name="Q" unicode="Q" horiz-adv-x="463" 
d="M326 -73l-37 68q-7 -1 -13.5 -3.5t-13.5 -3.5q-2 0 -4.5 -0.5t-5.5 -0.5q-5 0 -9.5 -0.5t-10.5 -0.5q-131 0 -163 116.5t-32 256.5v4.5v4.5q0 152 38 267.5t157 115.5q130 0 162 -117t32 -257v-4.5v-4.5q0 -97 -14 -182.5t-54 -138.5l45 -69l-77 -51v0zM206 146l64 37
l27 -41q13 41 17.5 104.5t4.5 144.5q0 167 -25 217.5t-62 50.5q-40 0 -64 -66t-24 -241q0 -112 16.5 -193.5t71.5 -81.5h3h3q1 0 2.5 0.5t2.5 0.5l-37 68v0z" />
    <glyph glyph-name="R" unicode="R" horiz-adv-x="463" 
d="M62 0v736h165q83 0 136.5 -55t53.5 -147q0 -7 -0.5 -14.5t-1.5 -14.5q-7 -50 -38 -94t-86 -59l149 -352h-117l-135 337h-24v-337h-102v0zM164 649v-225q75 0 110.5 26.5t35.5 90.5q0 46 -28.5 77t-82.5 31h-35v0z" />
    <glyph glyph-name="S" unicode="S" horiz-adv-x="407" 
d="M368 590l-92 -33q-3 41 -19 71.5t-55 30.5q-30 0 -47 -23t-17 -54q0 -28 14.5 -60t54.5 -71l83 -81q19 -19 33.5 -36.5t24.5 -34.5q18 -30 25.5 -61.5t7.5 -68.5q0 -76 -45 -129.5t-132 -53.5q-75 0 -122 45t-56 130l97 31q5 -51 24.5 -85.5t57.5 -34.5q28 0 51 23t23 67
q0 30 -15.5 64.5t-56.5 75.5l-80 79q-19 19 -33 36.5t-25 35.5q-17 29 -25 59t-8 64q0 82 50 128.5t114 46.5q76 0 121 -43t47 -118v0z" />
    <glyph glyph-name="T" unicode="T" horiz-adv-x="408" 
d="M153 0v644h-130v92h362v-92h-130v-644h-102v0z" />
    <glyph glyph-name="U" unicode="U" horiz-adv-x="462" 
d="M406 736v-554q0 -113 -49.5 -154.5t-124.5 -41.5q-76 0 -126 41.5t-50 154.5v554h102v-553q0 -7 0.5 -13.5t0.5 -13.5q4 -30 19.5 -54.5t53.5 -24.5q37 0 52 24.5t19 54.5q0 7 0.5 13.5t0.5 13.5v553h102v0z" />
    <glyph glyph-name="V" unicode="V" horiz-adv-x="407" 
d="M20 736h107l80 -518h2l76 518h102l-132 -736h-97l-138 736v0z" />
    <glyph glyph-name="W" unicode="W" horiz-adv-x="630" 
d="M511 736h102l-126 -736h-97l-74 520h-2l-74 -520h-97l-126 736h107l69 -518h2l66 518h107l67 -518h2l74 518v0z" />
    <glyph glyph-name="X" unicode="X" horiz-adv-x="407" 
d="M152 382l-121 354h107l62 -236h2l67 236h107l-122 -354l133 -382h-107l-78 267h-2l-73 -267h-107l132 382v0z" />
    <glyph glyph-name="Y" unicode="Y" horiz-adv-x="407" 
d="M20 736h107l80 -307h2l76 307h102l-130 -439v-297h-102v297l-135 439v0z" />
    <glyph glyph-name="Z" unicode="Z" horiz-adv-x="407" 
d="M43 736h344l-230 -649h211v-87h-348l231 649h-208v87v0z" />
    <glyph glyph-name="bracketleft" unicode="[" horiz-adv-x="296" 
d="M253 762v-87h-63v-742h63v-87h-160v916h160v0z" />
    <glyph glyph-name="backslash" unicode="\" horiz-adv-x="296" 
d="M16 751h74l190 -766h-74l-190 766v0z" />
    <glyph glyph-name="bracketright" unicode="]" horiz-adv-x="296" 
d="M43 -154v87h63v742h-63v87h160v-916h-160v0z" />
    <glyph glyph-name="asciicircum" unicode="^" horiz-adv-x="600" 
d="M129 279h-74l210 424h68l212 -424h-74l-173 342l-169 -342v0z" />
    <glyph glyph-name="underscore" unicode="_" horiz-adv-x="500" 
d="M500 -125h-500v50h500v-50v0z" />
    <glyph glyph-name="grave" unicode="`" horiz-adv-x="204" 
d="M-27 736h115l73 -136h-74l-114 136v0z" />
    <glyph glyph-name="a" unicode="a" horiz-adv-x="389" 
d="M343 0h-92v79h-2q-21 -47 -47.5 -67t-64.5 -20q-9 0 -20.5 2t-23.5 6q-24 12 -45 44t-21 99q0 107 44 148.5t144 41.5h36v69q0 27 -13.5 45t-47.5 18q-29 0 -43.5 -16.5t-18.5 -51.5l-86 24q11 73 53.5 99.5t99.5 26.5q70 0 109 -33t39 -108v-406v0zM124 155
q0 -36 10 -59t42 -23q6 0 12 1.5t12 5.5q19 10 35 36.5t16 71.5v71h-25q-69 0 -85.5 -32.5t-16.5 -71.5v0z" />
    <glyph glyph-name="b" unicode="b" horiz-adv-x="408" 
d="M53 0v736h92v-282h2q17 50 41 71.5t62 21.5q48 0 85 -55t37 -222q0 -129 -31 -203.5t-94 -74.5q-40 0 -63 25t-37 71l-2 1v-89h-92v0zM145 269q0 -103 15 -142t34 -46q3 -2 7 -2.5t7 -0.5q4 0 8 1l8 2q17 9 31.5 48t14.5 140t-14.5 140t-31.5 48l-8 2t-8 1q-3 0 -7 -0.5
t-7 -2.5q-19 -7 -34 -46t-15 -142v0z" />
    <glyph glyph-name="c" unicode="c" horiz-adv-x="352" 
d="M324 401l-92 -20q-1 39 -10.5 59t-33.5 20t-39.5 -33.5t-15.5 -158.5q0 -92 12.5 -141t43.5 -49q24 0 36 21t17 71l87 -30q-10 -73 -43 -110.5t-97 -37.5q-78 0 -115.5 64.5t-37.5 203.5q0 150 37.5 218.5t119.5 68.5q62 0 92 -38.5t37 -84.5q1 -5 1.5 -11t0.5 -12v0z
" />
    <glyph glyph-name="d" unicode="d" horiz-adv-x="408" 
d="M263 0v89l-2 -1q-13 -46 -36.5 -71t-63.5 -25q-63 0 -94 74.5t-31 203.5q0 167 37 222t85 55q38 0 62 -21.5t41 -71.5h2v282h92v-736h-92v0zM138 269q0 -101 14.5 -140t31.5 -48l8 -2t8 -1t7.5 0.5t6.5 2.5q19 7 34 46t15 142t-15 142t-34 46q-3 2 -6.5 2.5t-7.5 0.5
t-8 -1l-8 -2q-17 -9 -31.5 -48t-14.5 -140v0z" />
    <glyph glyph-name="e" unicode="e" horiz-adv-x="407" 
d="M365 259h-226q1 -72 11.5 -129t57.5 -57q27 0 40 21t18 47l2 14t1 13h87q-1 -68 -37 -122t-113 -54q-85 0 -124.5 65.5t-39.5 225.5q0 137 44 200.5t122 63.5q72 0 114.5 -55t42.5 -156v-77v0zM139 333h134v5.5v5.5q-1 45 -16 83t-52 38q-38 0 -51.5 -38t-14.5 -83v-5.5
v-5.5v0z" />
    <glyph glyph-name="f" unicode="f" horiz-adv-x="241" 
d="M169 451v-451h-97v451h-52v87h52v80q0 59 19 93t84 34q13 0 25 -0.5t21 -2.5v-92q-3 2 -7 2.5t-11 0.5q-14 0 -24 -9.5t-10 -32.5v-73h52v-87h-52v0z" />
    <glyph glyph-name="g" unicode="g" horiz-adv-x="408" 
d="M268 538h87v-571q0 -68 -41 -115.5t-123 -47.5q-53 0 -89 17.5t-61 55.5l78 53q11 -18 29.5 -31t42.5 -13q43 0 57.5 38.5t14.5 117.5v46h-2q-13 -46 -36.5 -71t-63.5 -25q-63 0 -94 74.5t-31 203.5q0 167 37 222t85 55q43 0 67 -25t41 -72h2v88v0zM263 269
q0 103 -15 142t-34 46q-3 2 -6.5 2.5t-7.5 0.5t-8 -1l-8 -2q-17 -9 -31.5 -48t-14.5 -140t14.5 -140t31.5 -48l8 -2t8 -1t7.5 0.5t6.5 2.5q19 7 34 46t15 142v0z" />
    <glyph glyph-name="h" unicode="h" horiz-adv-x="407" 
d="M53 0v736h97v-259h2q14 29 39 49.5t62 20.5q41 0 71 -33t30 -86v-428h-97v389q0 32 -13.5 49t-33.5 17q-29 0 -44.5 -23.5t-15.5 -52.5v-379h-97v0z" />
    <glyph glyph-name="i" unicode="i" horiz-adv-x="203" 
d="M53 0v538h97v-538h-97v0zM39 662q0 26 18.5 44t43.5 18q26 0 44.5 -18t18.5 -44t-18.5 -44.5t-44.5 -18.5q-25 0 -43.5 18.5t-18.5 44.5v0z" />
    <glyph glyph-name="j" unicode="j" horiz-adv-x="203" 
d="M53 538h97v-582q0 -81 -34 -113.5t-83 -32.5q-4 0 -9.5 0.5t-10.5 1.5q-6 1 -11 2t-9 3l-1 91l10 -4t10 -2q21 0 31 18t10 51v567v0zM39 662q0 26 18.5 44t43.5 18q26 0 44.5 -18t18.5 -44t-18.5 -44.5t-44.5 -18.5q-25 0 -43.5 18.5t-18.5 44.5v0z" />
    <glyph glyph-name="k" unicode="k" horiz-adv-x="352" 
d="M53 0v736h97v-419h2l84 221h97l-94 -227l95 -311h-97l-85 278h-2v-278h-97v0z" />
    <glyph glyph-name="l" unicode="l" horiz-adv-x="222" 
d="M53 127v609h97v-588q0 -31 14.5 -48t48.5 -17h10v-92h-36q-60 1 -97 30.5t-37 105.5v0z" />
    <glyph glyph-name="m" unicode="m" horiz-adv-x="629" 
d="M53 0v538h92v-81h2q17 42 43.5 66t63.5 24q39 0 61 -24t35 -65h2q2 5 4 10.5t5 11.5q13 25 38 46t69 21q51 0 79.5 -33t28.5 -84v-430h-97v377q0 31 -11.5 54.5t-40.5 23.5q-34 0 -49 -28t-15 -68v-359h-97v377q0 31 -11.5 54.5t-40.5 23.5q-34 0 -49 -28t-15 -68v-359
h-97v0z" />
    <glyph glyph-name="n" unicode="n" horiz-adv-x="407" 
d="M53 0v538h92v-73h2q18 45 44.5 63.5t62.5 18.5q40 0 70 -33t30 -86v-428h-97v389q0 32 -13.5 49t-33.5 17q-29 0 -44.5 -23.5t-15.5 -52.5v-379h-97v0z" />
    <glyph glyph-name="o" unicode="o" horiz-adv-x="408" 
d="M204 -9q-95 1 -131.5 82t-36.5 196q0 116 36.5 197t131.5 81t131.5 -81t36.5 -197q0 -115 -36.5 -196t-131.5 -81v-1zM204 73q34 0 50 56t16 166q0 74 -14 122t-52 48t-52 -48t-14 -122q0 -110 16 -166t50 -56v0z" />
    <glyph glyph-name="p" unicode="p" horiz-adv-x="408" 
d="M53 -191v729h87v-88h2q17 47 41 72t67 25q48 0 85 -55t37 -222q0 -129 -31 -203.5t-94 -74.5q-40 0 -63 25t-37 71l-2 1v-280h-92v0zM145 269q0 -103 15 -142t34 -46q3 -2 7 -2.5t7 -0.5q4 0 8 1l8 2q17 9 31.5 48t14.5 140t-14.5 140t-31.5 48l-8 2t-8 1q-3 0 -7 -0.5
t-7 -2.5q-19 -7 -34 -46t-15 -142v0z" />
    <glyph glyph-name="q" unicode="q" horiz-adv-x="408" 
d="M263 -191v280l-2 -1q-13 -46 -36.5 -71t-63.5 -25q-63 0 -94 74.5t-31 203.5q0 167 37 222t85 55q43 0 67 -25t41 -72h2v88h87v-729h-92v0zM138 269q0 -101 14.5 -140t31.5 -48l8 -2t8 -1t7.5 0.5t6.5 2.5q19 7 34 46t15 142t-15 142t-34 46q-3 2 -6.5 2.5t-7.5 0.5
t-8 -1l-8 -2q-17 -9 -31.5 -48t-14.5 -140v0z" />
    <glyph glyph-name="r" unicode="r" horiz-adv-x="296" 
d="M53 0v538h92v-98h2q1 3 1.5 6t1.5 5q9 34 35.5 63.5t77.5 32.5h1v-112q-6 2 -13 3.5t-16 1.5q-5 0 -10.5 -0.5t-10.5 -2.5q-24 -7 -44 -34.5t-20 -88.5v-314h-97v0z" />
    <glyph glyph-name="s" unicode="s" horiz-adv-x="352" 
d="M25 95l84 53q1 -28 18 -51.5t48 -23.5q25 0 39 15t16 34v2.5v2.5q0 20 -12.5 41.5t-47.5 48.5l-51 40q-21 16 -36 31t-25 30q-15 20 -21 41t-6 46q0 66 41 104t102 38q62 0 96 -30.5t51 -74.5l-83 -50q-1 29 -17 51t-48 22q-23 0 -36.5 -13.5t-13.5 -35.5v-6t1 -6
q3 -14 15.5 -29t43.5 -39l61 -47q47 -37 65 -74t18 -77q0 -59 -40 -102.5t-114 -43.5q-53 0 -89 24t-59 79v0z" />
    <glyph glyph-name="t" unicode="t" horiz-adv-x="241" 
d="M221 538v-87h-52v-317q0 -20 10.5 -31t29.5 -11h12v-87q-12 -2 -23.5 -3.5t-22.5 -1.5q-46 0 -74.5 23t-28.5 74v354h-52v87h52v134h97v-134h52v0z" />
    <glyph glyph-name="u" unicode="u" horiz-adv-x="407" 
d="M354 538v-538h-92v73h-2q-18 -45 -44.5 -63t-62.5 -18q-40 0 -70 33t-30 85v428h97v-389q0 -31 13.5 -48.5t33.5 -17.5q29 0 44.5 23.5t15.5 52.5v379h97v0z" />
    <glyph glyph-name="v" unicode="v" horiz-adv-x="352" 
d="M235 538h97l-110 -538h-92l-110 538h102l57 -352h2l54 352v0z" />
    <glyph glyph-name="w" unicode="w" horiz-adv-x="519" 
d="M499 538l-94 -538h-92l-53 408h-2l-52 -408h-92l-94 538h97l47 -352h2l45 352h97l49 -352h2l43 352h97v0z" />
    <glyph glyph-name="x" unicode="x" horiz-adv-x="352" 
d="M25 538h102l51 -173h2l49 173h92l-99 -256l107 -282h-97l-58 196h-2l-52 -196h-97l107 281l-105 257v0z" />
    <glyph glyph-name="y" unicode="y" horiz-adv-x="352" 
d="M235 538h97l-150 -729h-97l48 216l-113 513h97l65 -353h2l51 353v0z" />
    <glyph glyph-name="z" unicode="z" horiz-adv-x="352" 
d="M28 12l171 439h-173v87h298v-12l-169 -434h171v-92h-298v12v0z" />
    <glyph glyph-name="braceleft" unicode="{" horiz-adv-x="296" 
d="M276 -91v-63h-45q-57 1 -91 35t-34 102v168q0 50 -19 82.5t-42 36.5h-2.5h-2.5v68h2.5h2.5q23 4 42 36.5t19 82.5v169q0 68 38 102t87 34h45v-63h-22q-27 0 -39 -21.5t-12 -54.5v-161q1 -57 -18.5 -90.5t-43.5 -48.5q-12 -8 -23.5 -12.5t-20.5 -5.5v-2q9 -1 20.5 -5.5
t23.5 -12.5q24 -15 43.5 -48.5t18.5 -90.5v-161q0 -32 8.5 -53.5t42.5 -21.5l22 -1v0z" />
    <glyph glyph-name="bar" unicode="|" horiz-adv-x="222" 
d="M74 -250v1000h74v-1000h-74v0z" />
    <glyph glyph-name="braceright" unicode="}" horiz-adv-x="296" 
d="M20 699v63h45q57 0 91 -34t34 -102v-169q0 -50 19 -82.5t42 -36.5h2.5h2.5v-68h-2.5h-2.5q-23 -4 -42 -36.5t-19 -82.5v-169q0 -67 -37.5 -101t-87.5 -34l-45 -1v63h22q27 1 39 22.5t12 54.5v160q-1 57 18.5 90.5t43.5 48.5q12 8 23.5 12.5t20.5 5.5v2q-9 1 -20.5 5.5
t-23.5 12.5q-24 15 -43.5 48.5t-18.5 90.5v161q0 33 -8 54.5t-43 21.5h-22v0z" />
    <glyph glyph-name="asciitilde" unicode="~" horiz-adv-x="600" 
d="M495 330l36 -64q-27 -41 -56 -62.5t-69 -21.5h-7.5t-7.5 1q-20 1 -41.5 8.5t-49.5 23.5q-30 17 -56.5 26t-51.5 9q-30 0 -50.5 -18.5t-36.5 -55.5l-36 64q24 45 55.5 64.5t69.5 19.5q17 0 41 -5.5t50 -15.5q5 -2 9.5 -4.5t9.5 -4.5q44 -22 67 -30t36 -8q20 0 37.5 13.5
t33.5 36.5q5 5 9 11.5t8 12.5v0z" />
    <glyph glyph-name="exclamdown" unicode="&#xa1;" 
d="M176 -182h-112l19 546h74l19 -546v0zM180 500q0 -25 -17.5 -42.5t-42.5 -17.5t-42.5 17.5t-17.5 42.5t17.5 42.5t42.5 17.5t42.5 -17.5t17.5 -42.5v0z" />
    <glyph glyph-name="cent" unicode="&#xa2;" horiz-adv-x="408" 
d="M269 170l87 -30q-9 -65 -36 -102.5t-77 -45.5v-78h-52v77q-65 12 -96.5 77t-31.5 192q0 135 30.5 204.5t97.5 82.5v70h52v-70q49 -8 74 -44t32 -77q1 -6 1.5 -12.5t0.5 -12.5l-92 -20q-1 39 -10.5 59t-33.5 20t-39.5 -33.5t-15.5 -158.5q0 -92 12.5 -141t43.5 -49
q24 0 36 21t17 71v0z" />
    <glyph glyph-name="sterling" unicode="&#xa3;" horiz-adv-x="408" 
d="M25 336v52h91q-30 46 -41.5 88.5t-11.5 75.5q0 78 51.5 120.5t126.5 42.5q82 0 122.5 -51t40.5 -130v-22v-2h-102q0 49 -15.5 83.5t-56.5 34.5q-33 0 -49 -22.5t-16 -51.5q0 -26 13 -64.5t50 -101.5h138v-52h-115q5 -13 7.5 -27.5t2.5 -30.5q0 -46 -23.5 -77.5
t-73.5 -60.5l-1 -4q25 0 45 -8.5t38 -19.5q5 -3 11 -6.5t12 -6.5q11 -7 22.5 -11t24.5 -4q21 0 43.5 11.5t44.5 34.5v-105q-15 -9 -31 -15.5t-33 -11.5q-10 -2 -19.5 -3.5t-19.5 -1.5q-33 0 -56.5 11t-41.5 25q-7 5 -14 10.5t-14 10.5q-10 7 -21 11.5t-23 4.5q-25 0 -35 -17
t-10 -45h-82q2 46 11 72.5t35 49.5q11 9 24 18.5t30 19.5q24 15 36 31.5t16 34.5q2 7 2.5 14.5t0.5 14.5q0 12 -3 27.5t-8 32.5q-2 5 -4 10.5t-4 10.5h-115v0z" />
    <glyph glyph-name="currency" unicode="&#xa4;" horiz-adv-x="408" 
d="M43 153l-37 37l42 42q-21 26 -31.5 55.5t-10.5 63.5q0 35 11 65t30 55l-41 41l37 37l40 -41q25 19 56 30t65 11t64.5 -11t55.5 -30l41 41l37 -37l-41 -41q19 -25 30 -55t11 -65q0 -34 -11 -64t-31 -55l42 -42l-37 -37l-41 42q-24 -19 -55 -30.5t-65 -11.5t-65 11.5
t-55 30.5l-41 -42v0zM80 351q0 -51 36.5 -87.5t87.5 -36.5t87.5 36.5t36.5 87.5t-36.5 87.5t-87.5 36.5t-87.5 -36.5t-36.5 -87.5v0z" />
    <glyph glyph-name="yen" unicode="&#xa5;" horiz-adv-x="408" 
d="M160 0v186h-128v52h128v76h-128v52h109l-121 337h102l85 -307h2l82 307h97l-118 -337h105v-52h-123v-76h123v-52h-123v-186h-92v0z" />
    <glyph glyph-name="brokenbar" unicode="&#xa6;" horiz-adv-x="222" 
d="M74 -175v350h74v-350h-74v0zM74 325v350h74v-350h-74v0z" />
    <glyph glyph-name="section" unicode="&#xa7;" horiz-adv-x="463" 
d="M382 683l-70 -67q-2 4 -4.5 7.5t-4.5 7.5q-13 18 -26.5 25.5t-31.5 7.5q-22 0 -37.5 -14t-15.5 -37q0 -7 1 -13.5t3 -13.5q7 -18 27.5 -38t66.5 -53q38 -27 64.5 -50t43.5 -46q16 -21 23.5 -43.5t7.5 -47.5q0 -53 -31 -92t-82 -48q29 -19 47.5 -49t18.5 -77
q0 -60 -45 -99.5t-113 -39.5q-30 0 -58.5 9t-56.5 33l-14 14t-14 15l67 72q10 -17 20 -28t20 -18q10 -5 20 -7.5t20 -2.5q22 0 39.5 14.5t17.5 38.5q0 8 -1.5 15t-4.5 13q-8 16 -28 33.5t-58 44.5q-56 39 -89.5 69t-49.5 58q-11 19 -15.5 39t-4.5 42q0 55 33 92t89 41l-2 2
q-28 19 -43.5 50.5t-15.5 70.5q0 58 41.5 98t106.5 40q37 0 71 -12t68 -56v0zM327 299q0 3 -0.5 6t-0.5 6q-4 20 -19.5 40t-35.5 36q-25 20 -44.5 27.5t-37.5 7.5q-22 0 -40 -17t-18 -40v-2.5v-2.5q1 -14 10 -30t30 -38q26 -26 50 -40t45 -14q4 0 12 2t17 7q12 6 22 18.5
t10 33.5v0z" />
    <glyph glyph-name="dieresis" unicode="&#xa8;" horiz-adv-x="204" 
d="M-42 670q1 25 18.5 42.5t41.5 17.5q25 0 42.5 -17.5t17.5 -42.5t-17.5 -42.5t-42.5 -17.5q-24 0 -41.5 17.5t-17.5 42.5h-1zM126 670q0 25 17.5 42.5t42.5 17.5t42.5 -17.5t17.5 -42.5t-17.5 -42.5t-42.5 -17.5t-42.5 17.5t-17.5 42.5v0z" />
    <glyph glyph-name="copyright" unicode="&#xa9;" horiz-adv-x="800" 
d="M17 368q0 159 112 271t271 112t271 -112t112 -271t-112 -270.5t-271 -111.5t-271 111.5t-112 270.5v0zM91 368q0 -128 90.5 -218.5t218.5 -90.5t218.5 90.5t90.5 218.5t-90.5 218.5t-218.5 90.5t-218.5 -90.5t-90.5 -218.5v0zM601 444h-68q-9 41 -41.5 68.5t-81.5 27.5
q-72 0 -110 -50t-38 -121q0 -67 40 -120t110 -53q50 0 82 29t39 72h68q-14 -76 -65.5 -120t-121.5 -44q-102 0 -164 68t-62 168q0 101 60 167.5t163 66.5q72 0 126 -41t64 -118v0z" />
    <glyph glyph-name="ordfeminine" unicode="&#xaa;" horiz-adv-x="253" 
d="M238 387h-68v47l-2 1q-13 -29 -31.5 -41.5t-51.5 -12.5q-6 0 -13 1t-15 5q-16 7 -29 26.5t-13 61.5q0 65 28.5 90t92.5 25h34v29q0 17 -9.5 27.5t-35.5 10.5q-23 0 -33.5 -10t-12.5 -31l-64 15q8 50 36.5 67t75.5 17q56 0 83.5 -19.5t27.5 -64.5v-244v0zM170 538h-16
q-41 0 -52.5 -16t-12.5 -35v-2.5v-2.5q0 -18 6 -30.5t26 -12.5q4 0 7.5 1t7.5 2q13 6 23.5 20.5t10.5 40.5v35v0z" />
    <glyph glyph-name="guillemotleft" unicode="&#xab;" horiz-adv-x="407" 
d="M26 280l92 155h97l-97 -155l97 -149h-97l-92 149v0zM192 280l92 155h97l-97 -155l97 -149h-97l-92 149v0z" />
    <glyph glyph-name="logicalnot" unicode="&#xac;" horiz-adv-x="600" 
d="M479 108v210h-432v74h506v-284h-74v0z" />
    <glyph glyph-name="sfthyphen" unicode="&#xad;" horiz-adv-x="500" 
 />
    <glyph glyph-name="registered" unicode="&#xae;" horiz-adv-x="800" 
d="M17 368q0 159 112 271t271 112t271 -112t112 -271t-112 -270.5t-271 -111.5t-271 111.5t-112 270.5v0zM91 368q0 -128 90.5 -218.5t218.5 -90.5t218.5 90.5t90.5 218.5t-90.5 218.5t-218.5 90.5t-218.5 -90.5t-90.5 -218.5v0zM320 340v-193h-68v443h169q78 0 116.5 -30.5
t38.5 -95.5q0 -60 -32.5 -87.5t-81.5 -34.5l125 -195h-80l-119 193h-68v0zM320 398h79q43 0 76 10.5t33 59.5q0 38 -28 50.5t-61 13.5h-4h-4h-91v-134v0z" />
    <glyph glyph-name="overstore" unicode="&#xaf;" 
 />
    <glyph glyph-name="glyph113" unicode="&#xb0;" horiz-adv-x="400" 
d="M57 572q0 59 42 101t101 42t101 -42t42 -101t-42 -101t-101 -42t-101 42t-42 101v0zM115 572q0 -35 25 -60t60 -25t60 25t25 60t-25 60t-60 25t-60 -25t-25 -60v0z" />
    <glyph glyph-name="plusminus" unicode="&#xb1;" horiz-adv-x="600" 
d="M47 0v74h506v-74h-506v0zM263 345v161h74v-161h216v-74h-216v-161h-74v161h-216v74h216v0z" />
    <glyph glyph-name="twosuperior" unicode="&#xb2;" horiz-adv-x="265" 
d="M129 349h114v-63h-230l104 188q27 49 41 81.5t14 51.5q0 18 -9.5 31.5t-25.5 13.5q-23 0 -32.5 -20t-11.5 -55h-82q0 59 25.5 98.5t98.5 39.5q61 0 89 -30t30 -66v-3.5v-2.5q0 -38 -24.5 -88.5t-60.5 -109.5l-40 -66v0z" />
    <glyph glyph-name="threesuperior" unicode="&#xb3;" horiz-adv-x="265" 
d="M40 515l91 137h-104v63h219v-8l-104 -154h2q3 1 7 1.5t8 0.5h2.5h2.5q45 0 65 -36.5t20 -102.5q0 -61 -31 -99.5t-90 -38.5q-58 0 -85 34.5t-27 96.5h74q0 -31 9 -49.5t32 -18.5q26 0 35 24.5t9 56.5q0 35 -12.5 58t-39.5 23q-10 0 -19.5 -4.5t-17.5 -15.5l-46 32v0z" />
    <glyph glyph-name="acute" unicode="&#xb4;" horiz-adv-x="204" 
d="M43 600l73 136h115l-114 -136h-74v0z" />
    <glyph glyph-name="mu" unicode="&#xb5;" horiz-adv-x="407" 
d="M354 538v-538h-92v73h-2q-18 -46 -45 -63.5t-62 -17.5h-1.5h-1.5v-183h-97v729h97v-389q0 -31 13.5 -48.5t33.5 -17.5q29 0 44.5 23.5t15.5 52.5v379h97v0z" />
    <glyph glyph-name="paragraph" unicode="&#xb6;" horiz-adv-x="463" 
d="M161 -83v470q-55 0 -101 45t-46 125q0 94 47.5 136.5t127.5 42.5h189v-819h-74v756h-69v-756h-74v0z" />
    <glyph glyph-name="middot" unicode="&#xb7;" 
 />
    <glyph glyph-name="cedilla" unicode="&#xb8;" horiz-adv-x="204" 
d="M89 -156h-74q5 9 9.5 17t8.5 16q12 24 17.5 48.5t7.5 49.5l87 -1q-1 -11 -4.5 -24.5t-8.5 -27.5q-8 -22 -19 -42t-24 -35v-1z" />
    <glyph glyph-name="onesuperior" unicode="&#xb9;" horiz-adv-x="244" 
d="M93 286v328q-2 -3 -6 -5.5t-8 -5.5q-5 -3 -9.5 -6t-10.5 -6l-14 -6t-12 -5v65q9 4 18 9t19 10q13 8 26.5 17t26.5 18l10 8l10 8h24v-429h-74v0z" />
    <glyph glyph-name="ordmasculine" unicode="&#xba;" horiz-adv-x="266" 
d="M15 547q0 71 25 119.5t93 48.5t93 -48.5t25 -119.5q0 -69 -25 -117.5t-93 -48.5t-93 48.5t-25 117.5v0zM97 553q0 -57 7 -85.5t29 -28.5q23 0 29.5 28.5t6.5 85.5q0 46 -5 75t-31 29q-25 0 -30.5 -29t-5.5 -75v0z" />
    <glyph glyph-name="guillemotright" unicode="&#xbb;" horiz-adv-x="407" 
d="M123 131h-97l97 155l-97 149h97l92 -149l-92 -155v0zM289 131h-97l97 155l-97 149h97l92 -149l-92 -155v0z" />
    <glyph glyph-name="onequarter" unicode="&#xbc;" horiz-adv-x="610" 
d="M472 723h64l-431 -743h-64l431 743v0zM472 421h73v-289h49v-63h-49v-69h-68v69h-141v53l136 299v0zM397 132h80v182h-2l-78 -182v0zM93 286v328q-2 -3 -6 -5.5t-8 -5.5q-5 -3 -9.5 -6t-10.5 -6l-14 -6t-12 -5v65q9 4 18 9t19 10q13 8 26.5 17t26.5 18l10 8l10 8h24v-429
h-74v0z" />
    <glyph glyph-name="onehalf" unicode="&#xbd;" horiz-adv-x="610" 
d="M472 723h64l-431 -743h-64l431 743v0zM469 63h114v-63h-230l104 188q27 49 41 81.5t14 51.5q0 18 -9.5 31.5t-25.5 13.5q-23 0 -32.5 -20t-11.5 -55h-82q0 59 25.5 98.5t98.5 39.5q61 0 89 -30t30 -66v-3.5v-2.5q0 -38 -24.5 -88.5t-60.5 -109.5l-40 -66v0zM93 286v328
q-2 -3 -6 -5.5t-8 -5.5q-5 -3 -9.5 -6t-10.5 -6l-14 -6t-12 -5v65q9 4 18 9t19 10q13 8 26.5 17t26.5 18l10 8l10 8h24v-429h-74v0z" />
    <glyph glyph-name="threequarters" unicode="&#xbe;" horiz-adv-x="610" 
d="M503 723h64l-431 -743h-64l431 743v0zM472 421h73v-289h49v-63h-49v-69h-68v69h-141v53l136 299v0zM397 132h80v182h-2l-78 -182v0zM40 515l91 137h-104v63h219v-8l-104 -154h2q3 1 7 1.5t8 0.5h2.5h2.5q45 0 65 -36.5t20 -102.5q0 -61 -31 -99.5t-90 -38.5
q-58 0 -85 34.5t-27 96.5h74q0 -31 9 -49.5t32 -18.5q26 0 35 24.5t9 56.5q0 35 -12.5 58t-39.5 23q-10 0 -19.5 -4.5t-17.5 -15.5l-46 32v0z" />
    <glyph glyph-name="questiondown" unicode="&#xbf;" horiz-adv-x="352" 
d="M151 364h87q-3 -78 -8.5 -113.5t-19.5 -62.5q-2 -5 -5 -10l-6 -10l-42 -68q-10 -15 -16 -28t-10 -25q-6 -16 -7.5 -33t-1.5 -41q0 -43 12 -62.5t40 -19.5q37 0 46 37.5t10 87.5h102v-16q0 -85 -39 -140.5t-124 -55.5q-60 0 -104.5 39.5t-44.5 131.5q0 25 3 46t11 41
q5 15 13.5 30t19.5 32l44 66q4 6 7.5 12t6.5 12q16 30 20.5 63.5t5.5 86.5v0zM254 500q0 -25 -17.5 -42.5t-42.5 -17.5t-42.5 17.5t-17.5 42.5t17.5 42.5t42.5 17.5t42.5 -17.5t17.5 -42.5v0z" />
    <glyph glyph-name="Agrave" unicode="&#xc0;" horiz-adv-x="463" 
d="M175 736h102l166 -736h-107l-29 152h-161l-29 -152h-97l155 736v0zM162 234h130l-64 336h-2l-64 -336v0zM97 909h115l73 -136h-74l-114 136v0z" />
    <glyph glyph-name="Aacute" unicode="&#xc1;" horiz-adv-x="463" 
d="M175 736h102l166 -736h-107l-29 152h-161l-29 -152h-97l155 736v0zM162 234h130l-64 336h-2l-64 -336v0zM167 773l73 136h115l-114 -136h-74v0z" />
    <glyph glyph-name="Acircumflex" unicode="&#xc2;" horiz-adv-x="463" 
d="M175 736h102l166 -736h-107l-29 152h-161l-29 -152h-97l155 736v0zM162 234h130l-64 336h-2l-64 -336v0zM175 909h102l76 -136h-82l-49 78l-49 -78h-74l76 136v0z" />
    <glyph glyph-name="Atilde" unicode="&#xc3;" horiz-adv-x="463" 
d="M175 736h102l166 -736h-107l-29 152h-161l-29 -152h-97l155 736v0zM162 234h130l-64 336h-2l-64 -336v0zM314 890h47q0 -41 -23.5 -74t-62.5 -33h-1.5h-1.5q-9 0 -20.5 4t-34.5 15q-19 9 -28.5 11.5t-17.5 2.5q-12 0 -20 -6.5t-13 -26.5h-47q0 3 0.5 6t0.5 6q2 15 6 30
t11 27q9 14 24 23t37 9h2.5h2.5q9 0 20.5 -3t37.5 -12q22 -7 32 -9.5t15 -2.5q14 0 22 8t12 25v0z" />
    <glyph glyph-name="Adieresis" unicode="&#xc4;" horiz-adv-x="463" 
d="M175 736h102l166 -736h-107l-29 152h-161l-29 -152h-97l155 736v0zM162 234h130l-64 336h-2l-64 -336v0zM82 843q0 25 17.5 42.5t42.5 17.5t42.5 -17.5t17.5 -42.5t-17.5 -42.5t-42.5 -17.5t-42.5 17.5t-17.5 42.5v0zM250 843q0 25 17.5 42.5t42.5 17.5t42.5 -17.5
t17.5 -42.5t-17.5 -42.5t-42.5 -17.5t-42.5 17.5t-17.5 42.5v0z" />
    <glyph glyph-name="Aring" unicode="&#xc5;" horiz-adv-x="463" 
d="M175 736h102l166 -736h-107l-29 152h-161l-29 -152h-97l155 736v0zM162 234h130l-64 336h-2l-64 -336v0zM138 846q0 37 25.5 62.5t62.5 25.5t62.5 -25.5t25.5 -62.5t-25.5 -62.5t-62.5 -25.5t-62.5 25.5t-25.5 62.5v0zM180 846q0 -19 13.5 -32.5t32.5 -13.5t32.5 13.5
t13.5 32.5t-13.5 32.5t-32.5 13.5t-32.5 -13.5t-13.5 -32.5v0z" />
    <glyph glyph-name="AE" unicode="&#xc6;" horiz-adv-x="630" 
d="M247 736h347v-87h-183v-215h183v-87h-183v-255h183v-92h-285v152h-143l-44 -152h-102l227 736v0zM189 234h120v434h-2l-118 -434v0z" />
    <glyph glyph-name="Ccedilla" unicode="&#xc7;" horiz-adv-x="463" 
d="M229 -156h-74q5 9 9.5 17t8.5 16q12 24 17.5 48.5t7.5 49.5l87 -1q-1 -11 -4.5 -24.5t-8.5 -27.5q-8 -22 -19 -42t-24 -35v-1zM421 583l-101 -34q-9 59 -29.5 84.5t-46.5 25.5q-60 0 -80 -87t-20 -195q0 -124 19 -212t78 -88q41 0 62.5 44t28.5 96v1.5v1.5l98 -35
q-12 -82 -56 -140.5t-135 -58.5q-101 0 -151.5 88t-50.5 299q0 30 1.5 64.5t6.5 69.5q12 91 55 167.5t145 76.5q65 0 110 -41t66 -127v0z" />
    <glyph glyph-name="Egrave" unicode="&#xc8;" horiz-adv-x="352" 
d="M56 736h268v-87h-166v-215h166v-87h-166v-260h166v-87h-268v736v0zM53 909h115l73 -136h-74l-114 136v0z" />
    <glyph glyph-name="Eacute" unicode="&#xc9;" horiz-adv-x="352" 
d="M56 736h268v-87h-166v-215h166v-87h-166v-260h166v-87h-268v736v0zM123 773l73 136h115l-114 -136h-74v0z" />
    <glyph glyph-name="Ecircumflex" unicode="&#xca;" horiz-adv-x="352" 
d="M56 736h268v-87h-166v-215h166v-87h-166v-260h166v-87h-268v736v0zM131 909h102l76 -136h-82l-49 78l-49 -78h-74l76 136v0z" />
    <glyph glyph-name="Edieresis" unicode="&#xcb;" horiz-adv-x="352" 
d="M56 736h268v-87h-166v-215h166v-87h-166v-260h166v-87h-268v736v0zM38 843q0 25 17.5 42.5t42.5 17.5t42.5 -17.5t17.5 -42.5t-17.5 -42.5t-42.5 -17.5t-42.5 17.5t-17.5 42.5v0zM206 843q0 25 17.5 42.5t42.5 17.5t42.5 -17.5t17.5 -42.5t-17.5 -42.5t-42.5 -17.5
t-42.5 17.5t-17.5 42.5v0z" />
    <glyph glyph-name="Igrave" unicode="&#xcc;" 
d="M69 0v736h102v-736h-102v0zM-15 909h115l73 -136h-74l-114 136v0z" />
    <glyph glyph-name="Iacute" unicode="&#xcd;" 
d="M69 0v736h102v-736h-102v0zM55 773l73 136h115l-114 -136h-74v0z" />
    <glyph glyph-name="Icircumflex" unicode="&#xce;" 
d="M69 0v736h102v-736h-102v0zM63 909h102l76 -136h-82l-49 78l-49 -78h-74l76 136v0z" />
    <glyph glyph-name="Idieresis" unicode="&#xcf;" 
d="M69 0v736h102v-736h-102v0zM-30 843q1 25 18 42.5t42 17.5t42.5 -17.5t17.5 -42.5t-17.5 -42.5t-42.5 -17.5t-42 17.5t-17 42.5h-1zM138 843q0 25 17.5 42.5t42.5 17.5t42.5 -17.5t17.5 -42.5t-17.5 -42.5t-42.5 -17.5t-42.5 17.5t-17.5 42.5v0z" />
    <glyph glyph-name="Eth" unicode="&#xd0;" horiz-adv-x="463" 
d="M57 0v352h-55v82h55v302h119q146 0 196.5 -115.5t50.5 -258.5q0 -22 -1.5 -45.5t-4.5 -47.5q-13 -101 -65.5 -185t-167.5 -84h-127v0zM159 649v-215h83v-82h-83v-265q92 0 124.5 82t32.5 200q0 137 -40 208.5t-117 71.5v0z" />
    <glyph glyph-name="Ntilde" unicode="&#xd1;" horiz-adv-x="463" 
d="M56 736h102l150 -466h2v466h97v-736h-102l-150 466h-2v-466h-97v736v0zM320 890h47q0 -41 -23.5 -74t-62.5 -33h-1.5h-1.5q-9 0 -20.5 4t-34.5 15q-19 9 -28.5 11.5t-17.5 2.5q-12 0 -20 -6.5t-13 -26.5h-47q0 3 0.5 6t0.5 6q2 15 6 30t11 27q9 14 24 23t37 9h2.5h2.5
q9 0 20.5 -3t37.5 -12q22 -7 32 -9.5t15 -2.5q14 0 22 8t12 25v0z" />
    <glyph glyph-name="Ograve" unicode="&#xd2;" 
 />
    <glyph glyph-name="Oacute" unicode="&#xd3;" horiz-adv-x="463" 
d="M37 368q0 152 38 267.5t157 115.5q130 0 162 -117t32 -257v-4.5v-4.5q0 -152 -37.5 -267t-156.5 -115q-131 0 -163 116.5t-32 256.5v4.5v4.5v0zM144 352q0 -112 16.5 -193.5t71.5 -81.5q54 0 70.5 86.5t16.5 227.5q0 167 -25 217.5t-62 50.5q-40 0 -64 -66t-24 -241v0z
M173 773l73 136h115l-114 -136h-74v0z" />
    <glyph glyph-name="Ocircumflex" unicode="&#xd4;" horiz-adv-x="463" 
d="M37 368q0 152 38 267.5t157 115.5q130 0 162 -117t32 -257v-4.5v-4.5q0 -152 -37.5 -267t-156.5 -115q-131 0 -163 116.5t-32 256.5v4.5v4.5v0zM144 352q0 -112 16.5 -193.5t71.5 -81.5q54 0 70.5 86.5t16.5 227.5q0 167 -25 217.5t-62 50.5q-40 0 -64 -66t-24 -241v0z
M181 909h102l76 -136h-82l-49 78l-49 -78h-74l76 136v0z" />
    <glyph glyph-name="Otilde" unicode="&#xd5;" horiz-adv-x="463" 
d="M37 368q0 152 38 267.5t157 115.5q130 0 162 -117t32 -257v-4.5v-4.5q0 -152 -37.5 -267t-156.5 -115q-131 0 -163 116.5t-32 256.5v4.5v4.5v0zM144 352q0 -112 16.5 -193.5t71.5 -81.5q54 0 70.5 86.5t16.5 227.5q0 167 -25 217.5t-62 50.5q-40 0 -64 -66t-24 -241v0z
M320 890h47q0 -41 -23.5 -74t-62.5 -33h-1.5h-1.5q-9 0 -20.5 4t-34.5 15q-19 9 -28.5 11.5t-17.5 2.5q-12 0 -20 -6.5t-13 -26.5h-47q0 3 0.5 6t0.5 6q2 15 6 30t11 27q9 14 24 23t37 9h2.5h2.5q9 0 20.5 -3t37.5 -12q22 -7 32 -9.5t15 -2.5q14 0 22 8t12 25v0z" />
    <glyph glyph-name="Odieresis" unicode="&#xd6;" horiz-adv-x="463" 
d="M37 368q0 152 38 267.5t157 115.5q130 0 162 -117t32 -257v-4.5v-4.5q0 -152 -37.5 -267t-156.5 -115q-131 0 -163 116.5t-32 256.5v4.5v4.5v0zM144 352q0 -112 16.5 -193.5t71.5 -81.5q54 0 70.5 86.5t16.5 227.5q0 167 -25 217.5t-62 50.5q-40 0 -64 -66t-24 -241v0z
M88 843q0 25 17.5 42.5t42.5 17.5t42.5 -17.5t17.5 -42.5t-17.5 -42.5t-42.5 -17.5t-42.5 17.5t-17.5 42.5v0zM256 843q0 25 17.5 42.5t42.5 17.5t42.5 -17.5t17.5 -42.5t-17.5 -42.5t-42.5 -17.5t-42.5 17.5t-17.5 42.5v0z" />
    <glyph glyph-name="multiply" unicode="&#xd7;" horiz-adv-x="600" 
d="M249 253l-178 178l51 51l178 -178l178 178l51 -51l-178 -178l178 -178l-51 -51l-178 178l-178 -178l-51 51l178 178v0z" />
    <glyph glyph-name="Oslash" unicode="&#xd8;" horiz-adv-x="463" 
d="M24 -7l49 101q-22 51 -28.5 118t-7.5 137v9.5v9.5q0 152 38 267.5t157 115.5q44 0 75.5 -15.5t53.5 -42.5l34 71l44 -21l-49 -101q22 -53 29 -122t7 -142v-4.5v-5.5q0 -152 -37.5 -267t-156.5 -115q-44 0 -76 15t-53 43l-35 -72l-44 21v0zM314 486l-154 -324
q9 -40 26.5 -62.5t45.5 -22.5q54 0 70.5 86.5t16.5 227.5q0 28 -0.5 52t-2.5 43h-2v0zM148 248l156 327q-12 50 -30.5 67t-41.5 17q-40 0 -64 -66t-24 -241q0 -28 0.5 -54t1.5 -50h2v0z" />
    <glyph glyph-name="Ugrave" unicode="&#xd9;" horiz-adv-x="462" 
d="M406 736v-554q0 -113 -49.5 -154.5t-124.5 -41.5q-76 0 -126 41.5t-50 154.5v554h102v-553q0 -7 0.5 -13.5t0.5 -13.5q4 -30 19.5 -54.5t53.5 -24.5q37 0 52 24.5t19 54.5q0 7 0.5 13.5t0.5 13.5v553h102v0zM96 909h115l73 -136h-74l-114 136v0z" />
    <glyph glyph-name="Uacute" unicode="&#xda;" horiz-adv-x="462" 
d="M406 736v-554q0 -113 -49.5 -154.5t-124.5 -41.5q-76 0 -126 41.5t-50 154.5v554h102v-553q0 -7 0.5 -13.5t0.5 -13.5q4 -30 19.5 -54.5t53.5 -24.5q37 0 52 24.5t19 54.5q0 7 0.5 13.5t0.5 13.5v553h102v0zM166 773l73 136h115l-114 -136h-74v0z" />
    <glyph glyph-name="Ucircumflex" unicode="&#xdb;" horiz-adv-x="462" 
d="M406 736v-554q0 -113 -49.5 -154.5t-124.5 -41.5q-76 0 -126 41.5t-50 154.5v554h102v-553q0 -7 0.5 -13.5t0.5 -13.5q4 -30 19.5 -54.5t53.5 -24.5q37 0 52 24.5t19 54.5q0 7 0.5 13.5t0.5 13.5v553h102v0zM174 909h102l76 -136h-82l-49 78l-49 -78h-74l76 136v0z" />
    <glyph glyph-name="Udieresis" unicode="&#xdc;" horiz-adv-x="462" 
d="M406 736v-554q0 -113 -49.5 -154.5t-124.5 -41.5q-76 0 -126 41.5t-50 154.5v554h102v-553q0 -7 0.5 -13.5t0.5 -13.5q4 -30 19.5 -54.5t53.5 -24.5q37 0 52 24.5t19 54.5q0 7 0.5 13.5t0.5 13.5v553h102v0zM81 843q0 25 17.5 42.5t42.5 17.5t42.5 -17.5t17.5 -42.5
t-17.5 -42.5t-42.5 -17.5t-42.5 17.5t-17.5 42.5v0zM249 843q0 25 17.5 42.5t42.5 17.5t42.5 -17.5t17.5 -42.5t-17.5 -42.5t-42.5 -17.5t-42.5 17.5t-17.5 42.5v0z" />
    <glyph glyph-name="Yacute" unicode="&#xdd;" 
 />
    <glyph glyph-name="Thorn" unicode="&#xde;" horiz-adv-x="407" 
d="M56 0v736h102v-119q100 0 160.5 -51.5t60.5 -176.5q0 -102 -50 -166t-154 -64h-17v-159h-102v0zM158 530v-284q66 0 90 42.5t24 102.5q0 64 -27.5 101.5t-86.5 37.5v0z" />
    <glyph glyph-name="germandbls" unicode="&#xdf;" horiz-adv-x="407" 
d="M53 0v573q0 69 33 120.5t109 51.5q81 0 118 -51t37 -130q0 -61 -17.5 -98.5t-65.5 -50.5v-2q71 -12 90 -69t19 -130q0 -16 -1.5 -33.5t-4.5 -35.5q-11 -58 -43 -105.5t-96 -47.5q-7 0 -13.5 1t-11.5 3l-16 91q4 -2 8.5 -3t10.5 -1q30 0 44.5 30t18.5 66q1 8 1.5 17
t0.5 17q0 68 -16.5 110.5t-72.5 43.5v82q29 0 48.5 21t19.5 77q0 73 -15.5 92t-39.5 19t-36 -19t-12 -51v-588h-97v0z" />
    <glyph glyph-name="agrave" unicode="&#xe0;" horiz-adv-x="389" 
d="M343 0h-92v79h-2q-21 -47 -47.5 -67t-64.5 -20q-9 0 -20.5 2t-23.5 6q-24 12 -45 44t-21 99q0 107 44 148.5t144 41.5h36v69q0 27 -13.5 45t-47.5 18q-29 0 -43.5 -16.5t-18.5 -51.5l-86 24q11 73 53.5 99.5t99.5 26.5q70 0 109 -33t39 -108v-406v0zM124 155
q0 -36 10 -59t42 -23q6 0 12 1.5t12 5.5q19 10 35 36.5t16 71.5v71h-25q-69 0 -85.5 -32.5t-16.5 -71.5v0zM66 736h115l73 -136h-74l-114 136v0z" />
    <glyph glyph-name="aacute" unicode="&#xe1;" horiz-adv-x="389" 
d="M343 0h-92v79h-2q-21 -47 -47.5 -67t-64.5 -20q-9 0 -20.5 2t-23.5 6q-24 12 -45 44t-21 99q0 107 44 148.5t144 41.5h36v69q0 27 -13.5 45t-47.5 18q-29 0 -43.5 -16.5t-18.5 -51.5l-86 24q11 73 53.5 99.5t99.5 26.5q70 0 109 -33t39 -108v-406v0zM124 155
q0 -36 10 -59t42 -23q6 0 12 1.5t12 5.5q19 10 35 36.5t16 71.5v71h-25q-69 0 -85.5 -32.5t-16.5 -71.5v0zM136 600l73 136h115l-114 -136h-74v0z" />
    <glyph glyph-name="acircumflex" unicode="&#xe2;" horiz-adv-x="389" 
d="M343 0h-92v79h-2q-21 -47 -47.5 -67t-64.5 -20q-9 0 -20.5 2t-23.5 6q-24 12 -45 44t-21 99q0 107 44 148.5t144 41.5h36v69q0 27 -13.5 45t-47.5 18q-29 0 -43.5 -16.5t-18.5 -51.5l-86 24q11 73 53.5 99.5t99.5 26.5q70 0 109 -33t39 -108v-406v0zM124 155
q0 -36 10 -59t42 -23q6 0 12 1.5t12 5.5q19 10 35 36.5t16 71.5v71h-25q-69 0 -85.5 -32.5t-16.5 -71.5v0zM144 736h102l76 -136h-82l-49 78l-49 -78h-74l76 136v0z" />
    <glyph glyph-name="atilde" unicode="&#xe3;" horiz-adv-x="389" 
d="M343 0h-92v79h-2q-21 -47 -47.5 -67t-64.5 -20q-9 0 -20.5 2t-23.5 6q-24 12 -45 44t-21 99q0 107 44 148.5t144 41.5h36v69q0 27 -13.5 45t-47.5 18q-29 0 -43.5 -16.5t-18.5 -51.5l-86 24q11 73 53.5 99.5t99.5 26.5q70 0 109 -33t39 -108v-406v0zM124 155
q0 -36 10 -59t42 -23q6 0 12 1.5t12 5.5q19 10 35 36.5t16 71.5v71h-25q-69 0 -85.5 -32.5t-16.5 -71.5v0zM283 717h47q0 -41 -23.5 -74t-62.5 -33h-1.5h-1.5q-9 0 -20.5 4t-34.5 15q-19 9 -28.5 11.5t-17.5 2.5q-12 0 -20 -6.5t-13 -26.5h-47q0 3 0.5 6t0.5 6q2 15 6 30
t11 27q9 14 24 23t37 9h2.5h2.5q9 0 20.5 -3t37.5 -12q22 -7 32 -9.5t15 -2.5q14 0 22 8t12 25v0z" />
    <glyph glyph-name="adieresis" unicode="&#xe4;" horiz-adv-x="389" 
d="M343 0h-92v79h-2q-21 -47 -47.5 -67t-64.5 -20q-9 0 -20.5 2t-23.5 6q-24 12 -45 44t-21 99q0 107 44 148.5t144 41.5h36v69q0 27 -13.5 45t-47.5 18q-29 0 -43.5 -16.5t-18.5 -51.5l-86 24q11 73 53.5 99.5t99.5 26.5q70 0 109 -33t39 -108v-406v0zM124 155
q0 -36 10 -59t42 -23q6 0 12 1.5t12 5.5q19 10 35 36.5t16 71.5v71h-25q-69 0 -85.5 -32.5t-16.5 -71.5v0zM51 670q0 25 17.5 42.5t42.5 17.5t42.5 -17.5t17.5 -42.5t-17.5 -42.5t-42.5 -17.5t-42.5 17.5t-17.5 42.5v0zM219 670q0 25 17.5 42.5t42.5 17.5t42.5 -17.5
t17.5 -42.5t-17.5 -42.5t-42.5 -17.5t-42.5 17.5t-17.5 42.5v0z" />
    <glyph glyph-name="aring" unicode="&#xe5;" horiz-adv-x="389" 
d="M343 0h-92v79h-2q-21 -47 -47.5 -67t-64.5 -20q-9 0 -20.5 2t-23.5 6q-24 12 -45 44t-21 99q0 107 44 148.5t144 41.5h36v69q0 27 -13.5 45t-47.5 18q-29 0 -43.5 -16.5t-18.5 -51.5l-86 24q11 73 53.5 99.5t99.5 26.5q70 0 109 -33t39 -108v-406v0zM124 155
q0 -36 10 -59t42 -23q6 0 12 1.5t12 5.5q19 10 35 36.5t16 71.5v71h-25q-69 0 -85.5 -32.5t-16.5 -71.5v0zM107 663q0 37 25.5 62.5t62.5 25.5t62.5 -25.5t25.5 -62.5t-25.5 -62.5t-62.5 -25.5t-62.5 25.5t-25.5 62.5v0zM149 663q0 -19 13.5 -32.5t32.5 -13.5t32.5 13.5
t13.5 32.5t-13.5 32.5t-32.5 13.5t-32.5 -13.5t-13.5 -32.5v0z" />
    <glyph glyph-name="ae" unicode="&#xe6;" horiz-adv-x="556" 
d="M532 259h-207v-80q0 -46 13.5 -76t46.5 -30q24 0 37.5 19.5t17.5 77.5h87q-1 -6 -1.5 -11.5t-1.5 -10.5q-8 -59 -38 -107.5t-98 -48.5q-53 0 -78 27.5t-36 63.5q-22 -45 -51.5 -68t-75.5 -23q-65 0 -92 41t-30 90q-1 5 -1 10v10q0 107 44 148.5t144 41.5h26v44
q0 44 -14.5 66t-42.5 22t-41.5 -19t-17.5 -49l-84 24q9 58 43.5 92t100.5 34q39 0 68 -16t40 -42q20 29 42.5 43.5t52.5 14.5q71 0 109 -63t38 -176v-49v0zM238 163v96q-64 0 -93 -21.5t-29 -81.5v-8t1 -8q2 -25 15 -46t42 -21q22 0 38 19.5t22 43.5q2 7 3 14t1 13v0z
M325 333h115v2.5v3.5q-2 47 -11.5 86.5t-46.5 39.5q-39 0 -47.5 -41t-9.5 -91v0z" />
    <glyph glyph-name="ccedilla" unicode="&#xe7;" horiz-adv-x="352" 
d="M169 -151h-74q5 9 9.5 17t8.5 16q12 24 17.5 48.5t7.5 49.5l87 -1q-1 -11 -4.5 -24.5t-8.5 -27.5q-8 -22 -19 -42t-24 -35v-1zM324 401l-92 -20q-1 39 -10.5 59t-33.5 20t-39.5 -33.5t-15.5 -158.5q0 -92 12.5 -141t43.5 -49q24 0 36 21t17 71l87 -30q-10 -73 -43 -110.5
t-97 -37.5q-78 0 -115.5 64.5t-37.5 203.5q0 150 37.5 218.5t119.5 68.5q62 0 92 -38.5t37 -84.5q1 -5 1.5 -11t0.5 -12v0z" />
    <glyph glyph-name="egrave" unicode="&#xe8;" horiz-adv-x="407" 
d="M365 259h-226q1 -72 11.5 -129t57.5 -57q27 0 40 21t18 47l2 14t1 13h87q-1 -68 -37 -122t-113 -54q-85 0 -124.5 65.5t-39.5 225.5q0 137 44 200.5t122 63.5q72 0 114.5 -55t42.5 -156v-77v0zM139 333h134v5.5v5.5q-1 45 -16 83t-52 38q-38 0 -51.5 -38t-14.5 -83v-5.5
v-5.5v0zM75 736h115l73 -136h-74l-114 136v0z" />
    <glyph glyph-name="eacute" unicode="&#xe9;" horiz-adv-x="407" 
d="M365 259h-226q1 -72 11.5 -129t57.5 -57q27 0 40 21t18 47l2 14t1 13h87q-1 -68 -37 -122t-113 -54q-85 0 -124.5 65.5t-39.5 225.5q0 137 44 200.5t122 63.5q72 0 114.5 -55t42.5 -156v-77v0zM139 333h134v5.5v5.5q-1 45 -16 83t-52 38q-38 0 -51.5 -38t-14.5 -83v-5.5
v-5.5v0zM145 600l73 136h115l-114 -136h-74v0z" />
    <glyph glyph-name="ecircumflex" unicode="&#xea;" horiz-adv-x="407" 
d="M365 259h-226q1 -72 11.5 -129t57.5 -57q27 0 40 21t18 47l2 14t1 13h87q-1 -68 -37 -122t-113 -54q-85 0 -124.5 65.5t-39.5 225.5q0 137 44 200.5t122 63.5q72 0 114.5 -55t42.5 -156v-77v0zM139 333h134v5.5v5.5q-1 45 -16 83t-52 38q-38 0 -51.5 -38t-14.5 -83v-5.5
v-5.5v0zM153 736h102l76 -136h-82l-49 78l-49 -78h-74l76 136v0z" />
    <glyph glyph-name="edieresis" unicode="&#xeb;" horiz-adv-x="407" 
d="M365 259h-226q1 -72 11.5 -129t57.5 -57q27 0 40 21t18 47l2 14t1 13h87q-1 -68 -37 -122t-113 -54q-85 0 -124.5 65.5t-39.5 225.5q0 137 44 200.5t122 63.5q72 0 114.5 -55t42.5 -156v-77v0zM139 333h134v5.5v5.5q-1 45 -16 83t-52 38q-38 0 -51.5 -38t-14.5 -83v-5.5
v-5.5v0zM60 670q0 25 17.5 42.5t42.5 17.5t42.5 -17.5t17.5 -42.5t-17.5 -42.5t-42.5 -17.5t-42.5 17.5t-17.5 42.5v0zM228 670q0 25 17.5 42.5t42.5 17.5t42.5 -17.5t17.5 -42.5t-17.5 -42.5t-42.5 -17.5t-42.5 17.5t-17.5 42.5v0z" />
    <glyph glyph-name="igrave" unicode="&#xec;" horiz-adv-x="203" 
d="M53 0v538h97v-538h-97v0zM-27 736h115l73 -136h-74l-114 136v0z" />
    <glyph glyph-name="iacute" unicode="&#xed;" horiz-adv-x="203" 
d="M53 0v538h97v-538h-97v0zM43 600l73 136h115l-114 -136h-74v0z" />
    <glyph glyph-name="icircumflex" unicode="&#xee;" horiz-adv-x="203" 
d="M53 0v538h97v-538h-97v0zM51 736h102l76 -136h-82l-49 78l-49 -78h-74l76 136v0z" />
    <glyph glyph-name="idieresis" unicode="&#xef;" horiz-adv-x="203" 
d="M53 0v538h97v-538h-97v0zM-42 670q1 25 18.5 42.5t41.5 17.5q25 0 42.5 -17.5t17.5 -42.5t-17.5 -42.5t-42.5 -17.5q-24 0 -41.5 17.5t-17.5 42.5h-1zM126 670q0 25 17.5 42.5t42.5 17.5t42.5 -17.5t17.5 -42.5t-17.5 -42.5t-42.5 -17.5t-42.5 17.5t-17.5 42.5v0z" />
    <glyph glyph-name="eth" unicode="&#xf0;" horiz-adv-x="408" 
d="M95 586l-34 43l73 42q-14 13 -29.5 24t-31.5 20l53 55q15 -7 30.5 -16.5t31.5 -21.5q5 -4 10.5 -8t10.5 -9l77 43l34 -43l-71 -41q52 -57 87.5 -147.5t35.5 -206.5q0 -162 -36.5 -245t-131.5 -83t-131.5 81t-36.5 196q0 124 38.5 201t114.5 77q12 0 26 -5t29 -20l2 2
q-13 29 -31 56.5t-40 51.5l-80 -46v0zM138 295q0 -110 16 -166t50 -56t50 56t16 166q0 74 -14 122t-52 48t-52 -48t-14 -122v0z" />
    <glyph glyph-name="ntilde" unicode="&#xf1;" horiz-adv-x="407" 
d="M53 0v538h92v-73h2q18 45 44.5 63.5t62.5 18.5q40 0 70 -33t30 -86v-428h-97v389q0 32 -13.5 49t-33.5 17q-29 0 -44.5 -23.5t-15.5 -52.5v-379h-97v0zM292 717h47q0 -41 -23.5 -74t-62.5 -33h-1.5h-1.5q-9 0 -20.5 4t-34.5 15q-19 9 -28.5 11.5t-17.5 2.5
q-12 0 -20 -6.5t-13 -26.5h-47q0 3 0.5 6t0.5 6q2 15 6 30t11 27q9 14 24 23t37 9h2.5h2.5q9 0 20.5 -3t37.5 -12q22 -7 32 -9.5t15 -2.5q14 0 22 8t12 25v0z" />
    <glyph glyph-name="ograve" unicode="&#xf2;" horiz-adv-x="408" 
d="M204 -9q-95 1 -131.5 82t-36.5 196q0 116 36.5 197t131.5 81t131.5 -81t36.5 -197q0 -115 -36.5 -196t-131.5 -81v-1zM204 73q34 0 50 56t16 166q0 74 -14 122t-52 48t-52 -48t-14 -122q0 -110 16 -166t50 -56v0zM75 736h115l73 -136h-74l-114 136v0z" />
    <glyph glyph-name="oacute" unicode="&#xf3;" horiz-adv-x="408" 
d="M204 -9q-95 1 -131.5 82t-36.5 196q0 116 36.5 197t131.5 81t131.5 -81t36.5 -197q0 -115 -36.5 -196t-131.5 -81v-1zM204 73q34 0 50 56t16 166q0 74 -14 122t-52 48t-52 -48t-14 -122q0 -110 16 -166t50 -56v0zM145 600l73 136h115l-114 -136h-74v0z" />
    <glyph glyph-name="ocircumflex" unicode="&#xf4;" horiz-adv-x="408" 
d="M204 -9q-95 1 -131.5 82t-36.5 196q0 116 36.5 197t131.5 81t131.5 -81t36.5 -197q0 -115 -36.5 -196t-131.5 -81v-1zM204 73q34 0 50 56t16 166q0 74 -14 122t-52 48t-52 -48t-14 -122q0 -110 16 -166t50 -56v0zM153 736h102l76 -136h-82l-49 78l-49 -78h-74l76 136v0z
" />
    <glyph glyph-name="otilde" unicode="&#xf5;" horiz-adv-x="408" 
d="M204 -9q-95 1 -131.5 82t-36.5 196q0 116 36.5 197t131.5 81t131.5 -81t36.5 -197q0 -115 -36.5 -196t-131.5 -81v-1zM204 73q34 0 50 56t16 166q0 74 -14 122t-52 48t-52 -48t-14 -122q0 -110 16 -166t50 -56v0zM292 717h47q0 -41 -23.5 -74t-62.5 -33h-1.5h-1.5
q-9 0 -20.5 4t-34.5 15q-19 9 -28.5 11.5t-17.5 2.5q-12 0 -20 -6.5t-13 -26.5h-47q0 3 0.5 6t0.5 6q2 15 6 30t11 27q9 14 24 23t37 9h2.5h2.5q9 0 20.5 -3t37.5 -12q22 -7 32 -9.5t15 -2.5q14 0 22 8t12 25v0z" />
    <glyph glyph-name="odieresis" unicode="&#xf6;" horiz-adv-x="408" 
d="M204 -9q-95 1 -131.5 82t-36.5 196q0 116 36.5 197t131.5 81t131.5 -81t36.5 -197q0 -115 -36.5 -196t-131.5 -81v-1zM204 73q34 0 50 56t16 166q0 74 -14 122t-52 48t-52 -48t-14 -122q0 -110 16 -166t50 -56v0zM60 670q0 25 17.5 42.5t42.5 17.5t42.5 -17.5t17.5 -42.5
t-17.5 -42.5t-42.5 -17.5t-42.5 17.5t-17.5 42.5v0zM228 670q0 25 17.5 42.5t42.5 17.5t42.5 -17.5t17.5 -42.5t-17.5 -42.5t-42.5 -17.5t-42.5 17.5t-17.5 42.5v0z" />
    <glyph glyph-name="divide" unicode="&#xf7;" horiz-adv-x="600" 
d="M232 46q0 29 20 48.5t48 19.5q29 0 48.5 -19.5t19.5 -48.5q0 -28 -19.5 -47.5t-48.5 -19.5q-28 0 -48 19.5t-20 47.5v0zM553 216h-506v74h506v-74v0zM232 460q0 29 20 48.5t48 19.5q29 0 48.5 -19.5t19.5 -48.5q0 -28 -19.5 -48t-48.5 -20q-28 0 -48 20t-20 48v0z" />
    <glyph glyph-name="oslash" unicode="&#xf8;" horiz-adv-x="408" 
d="M31 0l41 74q-19 37 -27.5 87t-8.5 108q0 116 36.5 197t131.5 81q34 0 59.5 -11t43.5 -31l30 55l40 -22l-41 -74q20 -37 28 -87.5t8 -107.5q0 -115 -36.5 -196t-131.5 -81q-33 0 -58.5 10.5t-44.5 30.5l-30 -55l-40 22v0zM267 339l-112 -208q8 -29 20 -43.5t29 -14.5
q34 0 50 56t16 166v23t-1 21h-2v0zM143 202l113 210q-7 26 -19.5 39.5t-32.5 13.5q-38 0 -52 -48t-14 -122q0 -26 1 -49.5t2 -43.5h2v0z" />
    <glyph glyph-name="ugrave" unicode="&#xf9;" horiz-adv-x="407" 
d="M354 538v-538h-92v73h-2q-18 -45 -44.5 -63t-62.5 -18q-40 0 -70 33t-30 85v428h97v-389q0 -31 13.5 -48.5t33.5 -17.5q29 0 44.5 23.5t15.5 52.5v379h97v0zM69 736h115l73 -136h-74l-114 136v0z" />
    <glyph glyph-name="uacute" unicode="&#xfa;" horiz-adv-x="407" 
d="M354 538v-538h-92v73h-2q-18 -45 -44.5 -63t-62.5 -18q-40 0 -70 33t-30 85v428h97v-389q0 -31 13.5 -48.5t33.5 -17.5q29 0 44.5 23.5t15.5 52.5v379h97v0zM139 600l73 136h115l-114 -136h-74v0z" />
    <glyph glyph-name="ucircumflex" unicode="&#xfb;" horiz-adv-x="407" 
d="M354 538v-538h-92v73h-2q-18 -45 -44.5 -63t-62.5 -18q-40 0 -70 33t-30 85v428h97v-389q0 -31 13.5 -48.5t33.5 -17.5q29 0 44.5 23.5t15.5 52.5v379h97v0zM147 736h102l76 -136h-82l-49 78l-49 -78h-74l76 136v0z" />
    <glyph glyph-name="udieresis" unicode="&#xfc;" horiz-adv-x="407" 
d="M354 538v-538h-92v73h-2q-18 -45 -44.5 -63t-62.5 -18q-40 0 -70 33t-30 85v428h97v-389q0 -31 13.5 -48.5t33.5 -17.5q29 0 44.5 23.5t15.5 52.5v379h97v0zM54 670q0 25 17.5 42.5t42.5 17.5t42.5 -17.5t17.5 -42.5t-17.5 -42.5t-42.5 -17.5t-42.5 17.5t-17.5 42.5v0z
M222 670q0 25 17.5 42.5t42.5 17.5t42.5 -17.5t17.5 -42.5t-17.5 -42.5t-42.5 -17.5t-42.5 17.5t-17.5 42.5v0z" />
    <glyph glyph-name="yacute" unicode="&#xfd;" 
 />
    <glyph glyph-name="thorn" unicode="&#xfe;" horiz-adv-x="408" 
d="M53 -191v927h92v-282h2q17 50 41 71.5t62 21.5q48 0 85 -55t37 -222q0 -129 -31 -203.5t-94 -74.5q-40 0 -63 25t-37 71l-2 1v-280h-92v0zM145 269q0 -103 15 -142t34 -46q3 -2 7 -2.5t7 -0.5q4 0 8 1l8 2q17 9 31.5 48t14.5 140t-14.5 140t-31.5 48l-8 2t-8 1
q-3 0 -7 -0.5t-7 -2.5q-19 -7 -34 -46t-15 -142v0z" />
    <glyph glyph-name="ydieresis" unicode="&#xff;" horiz-adv-x="352" 
d="M235 538h97l-150 -729h-97l48 216l-113 513h97l65 -353h2l51 353v0zM32 670q0 25 17.5 42.5t42.5 17.5t42.5 -17.5t17.5 -42.5t-17.5 -42.5t-42.5 -17.5t-42.5 17.5t-17.5 42.5v0zM200 670q0 25 17.5 42.5t42.5 17.5t42.5 -17.5t17.5 -42.5t-17.5 -42.5t-42.5 -17.5
t-42.5 17.5t-17.5 42.5v0z" />
    <glyph glyph-name="Abreve" unicode="&#x102;" 
 />
    <glyph glyph-name="abreve" unicode="&#x103;" 
 />
    <glyph glyph-name="Aogonek" unicode="&#x104;" 
 />
    <glyph glyph-name="aogonek" unicode="&#x105;" 
 />
    <glyph glyph-name="Cacute" unicode="&#x106;" 
 />
    <glyph glyph-name="cacute" unicode="&#x107;" 
 />
    <glyph glyph-name="Ccaron" unicode="&#x10c;" 
 />
    <glyph glyph-name="ccaron" unicode="&#x10d;" 
 />
    <glyph glyph-name="Dcaron" unicode="&#x10e;" 
 />
    <glyph glyph-name="dcaron" unicode="&#x10f;" 
 />
    <glyph glyph-name="Dslash" unicode="&#x110;" 
 />
    <glyph glyph-name="dslash" unicode="&#x111;" 
 />
    <glyph glyph-name="Eogonek" unicode="&#x118;" 
 />
    <glyph glyph-name="eogonek" unicode="&#x119;" 
 />
    <glyph glyph-name="Ecaron" unicode="&#x11a;" 
 />
    <glyph glyph-name="ecaron" unicode="&#x11b;" 
 />
    <glyph glyph-name="Gbreve" unicode="&#x11e;" 
 />
    <glyph glyph-name="gbreve" unicode="&#x11f;" 
 />
    <glyph glyph-name="Idot" unicode="&#x130;" 
 />
    <glyph glyph-name="dotlessi" unicode="&#x131;" horiz-adv-x="203" 
d="M53 0v538h97v-538h-97v0z" />
    <glyph glyph-name="Lacute" unicode="&#x139;" 
 />
    <glyph glyph-name="lacute" unicode="&#x13a;" 
 />
    <glyph glyph-name="Lcaron" unicode="&#x13d;" 
 />
    <glyph glyph-name="lcaron" unicode="&#x13e;" 
 />
    <glyph glyph-name="Ldot" unicode="&#x13f;" 
 />
    <glyph glyph-name="ldot" unicode="&#x140;" 
 />
    <glyph glyph-name="Lslash" unicode="&#x141;" horiz-adv-x="352" 
d="M69 0v278l-69 -56v102l69 56v356h102v-272l113 92v-102l-113 -92v-270h164v-92h-266v0z" />
    <glyph glyph-name="lslash" unicode="&#x142;" horiz-adv-x="222" 
d="M53 391v345h97v-261l73 63v-92l-73 -63v-235q0 -31 14.5 -48t48.5 -17h10v-92h-36q-60 1 -97 30.5t-37 105.5v172l-59 -51v92l59 51v0z" />
    <glyph glyph-name="Nacute" unicode="&#x143;" 
 />
    <glyph glyph-name="nacute" unicode="&#x144;" 
 />
    <glyph glyph-name="Ncaron" unicode="&#x147;" 
 />
    <glyph glyph-name="ncaron" unicode="&#x148;" 
 />
    <glyph glyph-name="Odblacute" unicode="&#x150;" 
 />
    <glyph glyph-name="odblacute" unicode="&#x151;" 
 />
    <glyph glyph-name="OE" unicode="&#x152;" horiz-adv-x="630" 
d="M412 434h181v-87h-181v-260h181v-87h-255q-10 0 -19 -0.5t-17 -1.5q-5 -1 -9 -2t-9 -2q-6 -2 -12.5 -3t-13.5 -3q-7 -1 -13.5 -1.5t-12.5 -0.5q-131 0 -163 116.5t-32 256.5v4.5v4.5q0 152 38 267.5t157 115.5q19 0 32 -2t25 -4q2 -1 4 -1.5t4 -0.5q14 -3 30 -5t38 -2
h228v-87h-181v-215v0zM315 368q0 155 -12.5 223t-64.5 68q-46 0 -70 -64t-24 -227t24 -227t70 -64q52 0 64.5 68.5t12.5 222.5v0z" />
    <glyph glyph-name="oe" unicode="&#x153;" horiz-adv-x="574" 
d="M544 259h-207v-80q0 -46 13.5 -76t46.5 -30q24 0 37.5 19.5t17.5 77.5h87q-1 -6 -1.5 -11.5t-1.5 -10.5q-8 -59 -38 -107.5t-98 -48.5q-46 0 -71.5 23t-35.5 53q-16 -38 -40 -57t-65 -19q-67 0 -99.5 48t-45.5 107q-9 39 -11 75t-2 58q0 115 40 191t118 76q38 0 64.5 -22
t39.5 -57h2q12 38 40.5 58.5t62.5 20.5q71 0 109 -63t38 -176v-49v0zM193 73q34 0 45.5 47t11.5 147v31.5t-1 33.5q-3 50 -14.5 91.5t-42.5 41.5q-33 0 -46 -37.5t-17 -82.5q-1 -18 -1.5 -34.5t-0.5 -31.5v-16.5v-16.5q2 -65 15.5 -119t50.5 -54v0zM337 333h115v2.5v3.5
q-2 47 -11.5 86.5t-46.5 39.5q-39 0 -47.5 -41t-9.5 -91v0z" />
    <glyph glyph-name="Racute" unicode="&#x154;" 
 />
    <glyph glyph-name="racute" unicode="&#x155;" 
 />
    <glyph glyph-name="Rcaron" unicode="&#x158;" 
 />
    <glyph glyph-name="rcaron" unicode="&#x159;" 
 />
    <glyph glyph-name="Sacute" unicode="&#x15a;" 
 />
    <glyph glyph-name="sacute" unicode="&#x15b;" 
 />
    <glyph glyph-name="Scedilla" unicode="&#x15e;" 
 />
    <glyph glyph-name="scedilla" unicode="&#x15f;" 
 />
    <glyph glyph-name="Scaron" unicode="&#x160;" horiz-adv-x="407" 
d="M368 590l-92 -33q-3 41 -19 71.5t-55 30.5q-30 0 -47 -23t-17 -54q0 -28 14.5 -60t54.5 -71l83 -81q19 -19 33.5 -36.5t24.5 -34.5q18 -30 25.5 -61.5t7.5 -68.5q0 -76 -45 -129.5t-132 -53.5q-75 0 -122 45t-56 130l97 31q5 -51 24.5 -85.5t57.5 -34.5q28 0 51 23t23 67
q0 30 -15.5 64.5t-56.5 75.5l-80 79q-19 19 -33 36.5t-25 35.5q-17 29 -25 59t-8 64q0 82 50 128.5t114 46.5q76 0 121 -43t47 -118v0zM255 773h-102l-76 136h74l49 -78l49 78h82l-76 -136v0z" />
    <glyph glyph-name="scaron" unicode="&#x161;" horiz-adv-x="352" 
d="M25 95l84 53q1 -28 18 -51.5t48 -23.5q25 0 39 15t16 34v2.5v2.5q0 20 -12.5 41.5t-47.5 48.5l-51 40q-21 16 -36 31t-25 30q-15 20 -21 41t-6 46q0 66 41 104t102 38q62 0 96 -30.5t51 -74.5l-83 -50q-1 29 -17 51t-48 22q-23 0 -36.5 -13.5t-13.5 -35.5v-6t1 -6
q3 -14 15.5 -29t43.5 -39l61 -47q47 -37 65 -74t18 -77q0 -59 -40 -102.5t-114 -43.5q-53 0 -89 24t-59 79v0zM227 600h-102l-76 136h74l49 -78l49 78h82l-76 -136v0z" />
    <glyph glyph-name="Tcedilla" unicode="&#x162;" 
 />
    <glyph glyph-name="tcedilla" unicode="&#x163;" 
 />
    <glyph glyph-name="Tcaron" unicode="&#x164;" 
 />
    <glyph glyph-name="tcaron" unicode="&#x165;" 
 />
    <glyph glyph-name="Uring" unicode="&#x16e;" 
 />
    <glyph glyph-name="uring" unicode="&#x16f;" 
 />
    <glyph glyph-name="udblacute" unicode="&#x170;" 
 />
    <glyph glyph-name="Udblacute" unicode="&#x171;" 
 />
    <glyph glyph-name="Ydieresis" unicode="&#x178;" horiz-adv-x="407" 
d="M20 736h107l80 -307h2l76 307h102l-130 -439v-297h-102v297l-135 439v0zM60 843q0 25 17.5 42.5t42.5 17.5t42.5 -17.5t17.5 -42.5t-17.5 -42.5t-42.5 -17.5t-42.5 17.5t-17.5 42.5v0zM228 843q0 25 17.5 42.5t42.5 17.5t42.5 -17.5t17.5 -42.5t-17.5 -42.5t-42.5 -17.5
t-42.5 17.5t-17.5 42.5v0z" />
    <glyph glyph-name="Zacute" unicode="&#x179;" 
 />
    <glyph glyph-name="zacute" unicode="&#x17a;" 
 />
    <glyph glyph-name="Zdot" unicode="&#x17b;" 
 />
    <glyph glyph-name="zdot" unicode="&#x17c;" 
 />
    <glyph glyph-name="Zcaron" unicode="&#x17d;" horiz-adv-x="407" 
d="M43 736h344l-230 -649h211v-87h-348l231 649h-208v87v0zM261 773h-102l-76 136h74l49 -78l49 78h82l-76 -136v0z" />
    <glyph glyph-name="zcaron" unicode="&#x17e;" horiz-adv-x="352" 
d="M28 12l171 439h-173v87h298v-12l-169 -434h171v-92h-298v12v0zM227 600h-102l-76 136h74l49 -78l49 78h82l-76 -136v0z" />
    <glyph glyph-name="florin" unicode="&#x192;" horiz-adv-x="408" 
d="M78 335l9 52h84l19 177q8 79 38 115t103 36q17 0 29 -1t22 -3l-9 -90q-3 0 -6 0.5t-7 1.5h-5.5h-4.5q-34 0 -46.5 -20t-16.5 -52l-19 -164h91l-9 -52h-86l-51 -414q-7 -57 -41 -87t-92 -30q-17 0 -30 1t-24 3l13 91q3 0 7 -1l8 -2h2.5h2.5q25 0 39.5 8.5t17.5 34.5
l51 396h-89v0z" />
    <glyph glyph-name="hungarumlaut" unicode="&#x2ba;" horiz-adv-x="204" 
d="M-41 600l73 136h115l-114 -136h-74v0zM127 600l73 136h115l-114 -136h-74v0z" />
    <glyph glyph-name="tilde" unicode="&#x2c6;" horiz-adv-x="204" 
d="M190 717h47q0 -41 -23.5 -74t-62.5 -33h-1.5h-1.5q-9 0 -20.5 4t-34.5 15q-19 9 -28.5 11.5t-17.5 2.5q-12 0 -20 -6.5t-13 -26.5h-47q1 3 1.5 6t0.5 6q2 15 5.5 30t11.5 27q9 14 23.5 23t36.5 9h2.5h2.5q9 0 20.5 -3t37.5 -12q22 -7 32 -9.5t15 -2.5q14 0 22 8t12 25v0z
" />
    <glyph glyph-name="caron" unicode="&#x2c7;" horiz-adv-x="204" 
d="M153 600h-102l-76 136h74l49 -78l49 78h82l-76 -136v0z" />
    <glyph glyph-name="macron" unicode="&#x2c9;" horiz-adv-x="204" 
d="M-33 684h270v-68h-270v68v0z" />
    <glyph glyph-name="breve" unicode="&#x2d8;" horiz-adv-x="204" 
d="M-18 736h42q11 -34 28.5 -51t49.5 -17t50 17t28 51h42q0 -4 -0.5 -7.5t-0.5 -7.5q-5 -46 -35 -83.5t-84 -37.5t-83.5 37.5t-34.5 83.5q0 4 -0.5 7.5t-0.5 7.5h-1z" />
    <glyph glyph-name="dotaccent" unicode="&#x2d9;" horiz-adv-x="204" 
d="M42 670q0 25 17.5 42.5t42.5 17.5t42.5 -17.5t17.5 -42.5t-17.5 -42.5t-42.5 -17.5t-42.5 17.5t-17.5 42.5v0z" />
    <glyph glyph-name="ring" unicode="&#x2da;" horiz-adv-x="204" 
d="M14 663q0 37 25.5 62.5t62.5 25.5t62.5 -25.5t25.5 -62.5t-25.5 -62.5t-62.5 -25.5t-62.5 25.5t-25.5 62.5v0zM56 663q0 -19 13.5 -32.5t32.5 -13.5t32.5 13.5t13.5 32.5t-13.5 32.5t-32.5 13.5t-32.5 -13.5t-13.5 -32.5v0z" />
    <glyph glyph-name="ogonek" unicode="&#x2db;" horiz-adv-x="204" 
d="M244 -113l20 -63q-18 -9 -37 -14.5t-39 -5.5q-37 0 -58.5 19t-21.5 53q0 16 5 36.5t18 48.5l30 62h82v-20l-28 -61q-7 -13 -11 -24t-4 -18q0 -10 5.5 -16t14.5 -6q7 0 13 2.5t11 7.5v-1z" />
    <glyph glyph-name="circumflex" unicode="&#x2dc;" horiz-adv-x="204" 
d="M51 736h102l76 -136h-82l-49 78l-49 -78h-74l76 136v0z" />
    <glyph glyph-name="Gamma" unicode="&#x393;" horiz-adv-x="500" 
 />
    <glyph glyph-name="Theta" unicode="&#x398;" horiz-adv-x="500" 
 />
    <glyph glyph-name="summation" unicode="&#x3a3;" horiz-adv-x="500" 
 />
    <glyph glyph-name="Phi" unicode="&#x3a6;" horiz-adv-x="500" 
 />
    <glyph glyph-name="Omega" unicode="&#x3a9;" horiz-adv-x="500" 
 />
    <glyph glyph-name="alpha" unicode="&#x3b1;" horiz-adv-x="500" 
 />
    <glyph glyph-name="delta" unicode="&#x3b4;" horiz-adv-x="500" 
 />
    <glyph glyph-name="epsilon" unicode="&#x3b5;" horiz-adv-x="500" 
 />
    <glyph glyph-name="pi" unicode="&#x3c0;" horiz-adv-x="500" 
 />
    <glyph glyph-name="sigma" unicode="&#x3c3;" 
 />
    <glyph glyph-name="tau" unicode="&#x3c4;" horiz-adv-x="500" 
 />
    <glyph glyph-name="phi" unicode="&#x3c6;" 
 />
    <glyph glyph-name="glyph276" unicode="&#x2013;" horiz-adv-x="500" 
d="M0 324h500v-82h-500v82v0z" />
    <glyph glyph-name="emdash" unicode="&#x2014;" horiz-adv-x="1000" 
d="M0 242v82h1000v-82h-1000v0z" />
    <glyph glyph-name="underscoredbl" unicode="&#x2017;" horiz-adv-x="500" 
 />
    <glyph glyph-name="quoteleft" unicode="&#x2018;" 
d="M124 736h74l-59 -204h-97l82 204v0z" />
    <glyph glyph-name="quoteright" unicode="&#x2019;" 
d="M116 532h-74l59 204h97l-82 -204v0z" />
    <glyph glyph-name="quotesinglbase" unicode="&#x201a;" 
d="M116 -77h-74l59 204h97l-82 -204v0z" />
    <glyph glyph-name="quotedblleft" unicode="&#x201c;" horiz-adv-x="352" 
d="M100 736h74l-60 -204h-97l83 204v0zM261 736h74l-60 -204h-97l83 204v0z" />
    <glyph glyph-name="quotedblright" unicode="&#x201d;" horiz-adv-x="352" 
d="M91 532h-74l60 204h97l-83 -204v0zM252 532h-74l60 204h97l-83 -204v0z" />
    <glyph glyph-name="quotedblbase" unicode="&#x201e;" horiz-adv-x="352" 
d="M91 -77h-74l60 204h97l-83 -204v0zM252 -77h-74l60 204h97l-83 -204v0z" />
    <glyph glyph-name="dagger" unicode="&#x2020;" horiz-adv-x="407" 
d="M29 445v87h126v204h97v-204h126v-87h-126v-534h-97v534h-126v0z" />
    <glyph glyph-name="daggerdbl" unicode="&#x2021;" horiz-adv-x="407" 
d="M155 564v172h97v-172h126v-87h-126v-307h126v-87h-126v-172h-97v172h-126v87h126v307h-126v87h126v0z" />
    <glyph glyph-name="glyph287" unicode="&#x2022;" horiz-adv-x="500" 
d="M66 368q0 77 54 130.5t130 53.5q77 0 130.5 -53.5t53.5 -130.5q0 -76 -53.5 -130t-130.5 -54q-76 0 -130 54t-54 130v0z" />
    <glyph glyph-name="ellipsis" unicode="&#x2026;" horiz-adv-x="1000" 
d="M107 54q0 25 17.5 42.5t42.5 17.5t42.5 -17.5t17.5 -42.5t-17.5 -42t-42.5 -17t-42.5 17t-17.5 42v0zM440 54q0 25 17.5 42.5t42.5 17.5t42.5 -17.5t17.5 -42.5t-17.5 -42t-42.5 -17t-42.5 17t-17.5 42v0zM773 54q0 25 17.5 42.5t42.5 17.5t42.5 -17.5t17.5 -42.5
t-17.5 -42t-42.5 -17t-42.5 17t-17.5 42v0z" />
    <glyph glyph-name="perthousand" unicode="&#x2030;" horiz-adv-x="1000" 
d="M517 723h64l-431 -743h-64l431 743v0zM366 160q0 92 42.5 132t97.5 40t97.5 -40t42.5 -132q0 -93 -42.5 -132t-97.5 -39t-97.5 39t-42.5 132v0zM453 157q0 -45 11 -73t42 -28q32 0 42.5 28t10.5 73t-10.5 73t-42.5 28q-31 0 -42 -28t-11 -73v0zM705 160q0 92 42.5 132
t97.5 40t97.5 -40t42.5 -132q0 -93 -42.5 -132t-97.5 -39t-97.5 39t-42.5 132v0zM792 157q0 -45 11 -73t42 -28q32 0 42.5 28t10.5 73t-10.5 73t-42.5 28q-31 0 -42 -28t-11 -73v0zM15 543q0 92 42.5 132t97.5 40t97.5 -40t42.5 -132q0 -93 -42.5 -132.5t-97.5 -39.5
t-97.5 39.5t-42.5 132.5v0zM102 540q0 -45 11 -73t42 -28q32 0 42.5 28t10.5 73t-10.5 73t-42.5 28q-31 0 -42 -28t-11 -73v0z" />
    <glyph glyph-name="guilsinglleft" unicode="&#x2039;" horiz-adv-x="241" 
d="M26 280l92 155h97l-97 -155l97 -149h-97l-92 149v0z" />
    <glyph glyph-name="guilsinglright" unicode="&#x203a;" horiz-adv-x="241" 
d="M123 131h-97l97 155l-97 149h97l92 -149l-92 -155v0z" />
    <glyph glyph-name="exclamdbl" unicode="&#x203c;" horiz-adv-x="500" 
 />
    <glyph glyph-name="nsuperior" unicode="&#x207f;" horiz-adv-x="500" 
 />
    <glyph glyph-name="franc" unicode="&#x20a3;" horiz-adv-x="500" 
 />
    <glyph glyph-name="peseta" unicode="&#x20a7;" horiz-adv-x="500" 
 />
    <glyph glyph-name="trademark" unicode="&#x2122;" horiz-adv-x="990" 
d="M153 324v354h-127v58h328v-58h-127v-354h-74v0zM810 324v338h-2l-129 -338h-50l-129 338h-2v-338h-74v412h113l118 -303l116 303h113v-412h-74v0z" />
    <glyph glyph-name="arrowleft" unicode="&#x2190;" 
 />
    <glyph glyph-name="arrowup" unicode="&#x2191;" 
 />
    <glyph glyph-name="arrowright" unicode="&#x2192;" horiz-adv-x="500" 
 />
    <glyph glyph-name="arrowdown" unicode="&#x2193;" 
 />
    <glyph glyph-name="arrowboth" unicode="&#x2194;" 
 />
    <glyph glyph-name="arrowupdn" unicode="&#x2195;" 
 />
    <glyph glyph-name="arrowupdnbase" unicode="&#x21a8;" 
 />
    <glyph glyph-name="partialdiff" unicode="&#x2202;" horiz-adv-x="500" 
 />
    <glyph glyph-name="Delta" unicode="&#x2206;" horiz-adv-x="500" 
 />
    <glyph glyph-name="product" unicode="&#x220f;" 
 />
    <glyph glyph-name="minus" unicode="&#x2212;" horiz-adv-x="600" 
d="M553 216h-506v74h506v-74v0z" />
    <glyph glyph-name="fraction" unicode="&#x2215;" horiz-adv-x="167" 
d="M267 723h64l-431 -743h-64l431 743v0z" />
    <glyph glyph-name="periodcentered" unicode="&#x2219;" 
d="M49 319q0 29 21 50t50 21t50 -21t21 -50t-21 -50t-50 -21t-50 21t-21 50v0z" />
    <glyph glyph-name="radical" unicode="&#x221a;" horiz-adv-x="500" 
 />
    <glyph glyph-name="infinity" unicode="&#x221e;" 
 />
    <glyph glyph-name="orthogonal" unicode="&#x221f;" 
 />
    <glyph glyph-name="intersection" unicode="&#x2229;" 
 />
    <glyph glyph-name="integral" unicode="&#x222b;" 
 />
    <glyph glyph-name="approxequal" unicode="&#x2248;" horiz-adv-x="500" 
 />
    <glyph glyph-name="notequal" unicode="&#x2260;" horiz-adv-x="500" 
 />
    <glyph glyph-name="equivalence" unicode="&#x2261;" 
 />
    <glyph glyph-name="lessequal" unicode="&#x2264;" horiz-adv-x="500" 
 />
    <glyph glyph-name="greaterequal" unicode="&#x2265;" horiz-adv-x="500" 
 />
    <glyph glyph-name="house" unicode="&#x2302;" 
 />
    <glyph glyph-name="revlogicalnot" unicode="&#x2310;" 
 />
    <glyph glyph-name="integraltp" unicode="&#x2320;" 
 />
    <glyph glyph-name="integralbt" unicode="&#x2321;" 
 />
    <glyph glyph-name="2500" unicode="&#x2500;" 
 />
    <glyph glyph-name="2502" unicode="&#x2502;" 
 />
    <glyph glyph-name="250c" unicode="&#x250c;" 
 />
    <glyph glyph-name="2510" unicode="&#x2510;" 
 />
    <glyph glyph-name="2514" unicode="&#x2514;" 
 />
    <glyph glyph-name="2518" unicode="&#x2518;" 
 />
    <glyph glyph-name="251c" unicode="&#x251c;" 
 />
    <glyph glyph-name="2524" unicode="&#x2524;" 
 />
    <glyph glyph-name="252c" unicode="&#x252c;" 
 />
    <glyph glyph-name="2534" unicode="&#x2534;" 
 />
    <glyph glyph-name="253c" unicode="&#x253c;" 
 />
    <glyph glyph-name="2550" unicode="&#x2550;" 
 />
    <glyph glyph-name="2551" unicode="&#x2551;" 
 />
    <glyph glyph-name="2552" unicode="&#x2552;" 
 />
    <glyph glyph-name="2553" unicode="&#x2553;" 
 />
    <glyph glyph-name="2554" unicode="&#x2554;" 
 />
    <glyph glyph-name="2555" unicode="&#x2555;" 
 />
    <glyph glyph-name="2556" unicode="&#x2556;" 
 />
    <glyph glyph-name="2557" unicode="&#x2557;" 
 />
    <glyph glyph-name="2558" unicode="&#x2558;" 
 />
    <glyph glyph-name="2559" unicode="&#x2559;" 
 />
    <glyph glyph-name="255a" unicode="&#x255a;" 
 />
    <glyph glyph-name="255b" unicode="&#x255b;" 
 />
    <glyph glyph-name="255c" unicode="&#x255c;" 
 />
    <glyph glyph-name="255d" unicode="&#x255d;" 
 />
    <glyph glyph-name="255e" unicode="&#x255e;" 
 />
    <glyph glyph-name="255f" unicode="&#x255f;" 
 />
    <glyph glyph-name="2560" unicode="&#x2560;" 
 />
    <glyph glyph-name="2561" unicode="&#x2561;" 
 />
    <glyph glyph-name="2562" unicode="&#x2562;" 
 />
    <glyph glyph-name="2563" unicode="&#x2563;" 
 />
    <glyph glyph-name="2564" unicode="&#x2564;" 
 />
    <glyph glyph-name="2565" unicode="&#x2565;" 
 />
    <glyph glyph-name="2566" unicode="&#x2566;" 
 />
    <glyph glyph-name="2567" unicode="&#x2567;" 
 />
    <glyph glyph-name="2568" unicode="&#x2568;" 
 />
    <glyph glyph-name="2569" unicode="&#x2569;" 
 />
    <glyph glyph-name="256a" unicode="&#x256a;" 
 />
    <glyph glyph-name="256b" unicode="&#x256b;" 
 />
    <glyph glyph-name="256c" unicode="&#x256c;" 
 />
    <glyph glyph-name="upblock" unicode="&#x2580;" 
 />
    <glyph glyph-name="dnblock" unicode="&#x2584;" 
 />
    <glyph glyph-name="block" unicode="&#x2588;" 
 />
    <glyph glyph-name="lfblock" unicode="&#x258c;" 
 />
    <glyph glyph-name="rtblock" unicode="&#x2590;" 
 />
    <glyph glyph-name="ltshade" unicode="&#x2591;" 
 />
    <glyph glyph-name="shade" unicode="&#x2592;" 
 />
    <glyph glyph-name="dkshade" unicode="&#x2593;" 
 />
    <glyph glyph-name="filledbox" unicode="&#x25a0;" horiz-adv-x="500" 
 />
    <glyph glyph-name="filledrect" unicode="&#x25ac;" 
 />
    <glyph glyph-name="triagup" unicode="&#x25b2;" 
 />
    <glyph glyph-name="triagrt" unicode="&#x25ba;" 
 />
    <glyph glyph-name="triagdn" unicode="&#x25bc;" 
 />
    <glyph glyph-name="triaglf" unicode="&#x25c4;" 
 />
    <glyph glyph-name="lozenge" unicode="&#x25ca;" horiz-adv-x="500" 
 />
    <glyph glyph-name="circle" unicode="&#x25cb;" 
 />
    <glyph glyph-name="invbullet" unicode="&#x25d8;" 
 />
    <glyph glyph-name="invcircle" unicode="&#x25d9;" 
 />
    <glyph glyph-name="smileface" unicode="&#x263a;" 
 />
    <glyph glyph-name="invsmileface" unicode="&#x263b;" 
 />
    <glyph glyph-name="sun" unicode="&#x263c;" 
 />
    <glyph glyph-name="female" unicode="&#x2640;" 
 />
    <glyph glyph-name="male" unicode="&#x2642;" 
 />
    <glyph glyph-name="spade" unicode="&#x2660;" 
 />
    <glyph glyph-name="club" unicode="&#x2663;" 
 />
    <glyph glyph-name="heart" unicode="&#x2665;" 
 />
    <glyph glyph-name="diamond" unicode="&#x2666;" 
 />
    <glyph glyph-name="musicalnote" unicode="&#x266a;" 
 />
    <glyph glyph-name="musicalnotedbl" unicode="&#x266b;" 
 />
    <glyph glyph-name="apple" unicode="&#xf000;" 
 />
    <glyph glyph-name="fi" unicode="&#xf001;" horiz-adv-x="463" 
d="M72 0v451h-52v87h52v80q0 59 19 93t84 34q13 0 25 -0.5t21 -2.5v-92q-3 2 -7 2.5t-11 0.5q-14 0 -24 -9.5t-10 -32.5v-73h52v-87h-52v-451h-97v0zM294 0v538h97v-538h-97v0zM280 662q0 26 18.5 44t43.5 18q26 0 44.5 -18t18.5 -44t-18.5 -44.5t-44.5 -18.5
q-25 0 -43.5 18.5t-18.5 44.5v0z" />
    <glyph glyph-name="fl" unicode="&#xf002;" horiz-adv-x="463" 
d="M294 127v609h97v-588q0 -31 14.5 -48t48.5 -17h10v-92h-36q-60 1 -97 30.5t-37 105.5v0zM72 0v451h-52v87h52v80q0 59 19 93t84 34q13 0 25 -0.5t21 -2.5v-92q-3 2 -7 2.5t-11 0.5q-14 0 -24 -9.5t-10 -32.5v-73h52v-87h-52v-451h-97v0z" />
    <glyph glyph-name="degree" horiz-adv-x="400" 
d="M57 572q0 59 42 101t101 42t101 -42t42 -101t-42 -101t-101 -42t-101 42t-42 101v0zM115 572q0 -35 25 -60t60 -25t60 25t25 60t-25 60t-60 25t-60 -25t-25 -60v0z" />
    <glyph glyph-name="bullet" horiz-adv-x="500" 
d="M66 368q0 77 54 130.5t130 53.5q77 0 130.5 -53.5t53.5 -130.5q0 -76 -53.5 -130t-130.5 -54q-76 0 -130 54t-54 130v0z" />
    <glyph glyph-name="endash" horiz-adv-x="500" 
d="M0 324h500v-82h-500v82v0z" />
    </font>
</defs>
</svg>
